<mxfile host="app.diagrams.net" modified="2024-04-03T14:36:45.504Z" agent="Mozilla/5.0 (Windows NT 10.0; Win64; x64) AppleWebKit/537.36 (KHTML, like Gecko) Chrome/123.0.0.0 Safari/537.36" etag="xNiqxlBp-E4J15RkPXOL" version="24.2.1" type="device">
  <diagram id="f106602c-feb2-e66a-4537-3a34d633f6aa" name="Page-1">
    <mxGraphModel dx="880" dy="468" grid="1" gridSize="10" guides="1" tooltips="1" connect="1" arrows="1" fold="1" page="1" pageScale="1" pageWidth="1169" pageHeight="827" background="none" math="0" shadow="0">
      <root>
        <mxCell id="0" />
        <mxCell id="1" parent="0" />
        <mxCell id="GuzJ8BqgIlNCJu6hI-l5-1007" value="&lt;b&gt;Fabric Analytics&lt;/b&gt;" style="fillColor=#F6F6F6;strokeColor=none;shadow=0;gradientColor=none;fontSize=14;align=left;spacing=10;fontColor=#717171;9E9E9E;verticalAlign=top;spacingTop=-4;fontStyle=0;spacingLeft=40;html=1;" parent="1" vertex="1">
          <mxGeometry x="235.25" y="240" width="658" height="970" as="geometry" />
        </mxCell>
        <mxCell id="GuzJ8BqgIlNCJu6hI-l5-1149" value="" style="strokeColor=#dddddd;shadow=1;strokeWidth=1;rounded=1;absoluteArcSize=1;arcSize=2;" parent="GuzJ8BqgIlNCJu6hI-l5-1007" vertex="1">
          <mxGeometry x="470" y="298.46153846153845" width="159" height="111.92307692307692" as="geometry" />
        </mxCell>
        <mxCell id="GuzJ8BqgIlNCJu6hI-l5-1150" value="&lt;font color=&quot;#000000&quot;&gt;Messaging&lt;br&gt;(Rules Actions)&lt;/font&gt;&lt;br&gt;Pub/Sub" style="editableCssRules=.*;html=1;fontColor=#999999;shape=image;verticalLabelPosition=middle;verticalAlign=middle;labelPosition=right;align=left;spacingLeft=20;part=1;points=[];imageAspect=0;image=data:image/svg+xml,PHN2ZyB4bWxucz0iaHR0cDovL3d3dy53My5vcmcvMjAwMC9zdmciIHhtbG5zOnY9Imh0dHBzOi8vdmVjdGEuaW8vbmFubyIgd2lkdGg9IjE4LjMxOTk5OTY5NDgyNDIyIiBoZWlnaHQ9IjIwLjAwMDAwMTkwNzM0ODYzMyIgdmlld0JveD0iMCAwIDE4LjMxOTk5OTY5NDgyNDIyIDIwLjAwMDAwMTkwNzM0ODYzMyI+JiN4YTsJPHN0eWxlIHR5cGU9InRleHQvY3NzIj4mI3hhOwkuc3Qwe2ZpbGw6IzY2OWRmNjt9JiN4YTsJLnN0MXtmaWxsOiM0Mjg1ZjQ7fSYjeGE7CS5zdDJ7ZmlsbDojYWVjYmZhO30mI3hhOwk8L3N0eWxlPiYjeGE7CTxkZWZzPiYjeGE7CQk8ZmlsdGVyIGlkPSJBIiB4PSI0LjY0IiB5PSI0LjE5IiB3aWR0aD0iMTQuNzMiIGhlaWdodD0iMTIuNzYiIGZpbHRlclVuaXRzPSJ1c2VyU3BhY2VPblVzZSIgY29sb3ItaW50ZXJwb2xhdGlvbi1maWx0ZXJzPSJzUkdCIj4mI3hhOwkJCTxmZUZsb29kIGZsb29kLWNvbG9yPSIjZmZmIi8+JiN4YTsJCQk8ZmVCbGVuZCBpbj0iU291cmNlR3JhcGhpYyIvPiYjeGE7CQk8L2ZpbHRlcj4mI3hhOwkJPG1hc2sgaWQ9IkIiIHg9IjQuNjQiIHk9IjQuMTkiIHdpZHRoPSIxNC43MyIgaGVpZ2h0PSIxMi43NiIgbWFza1VuaXRzPSJ1c2VyU3BhY2VPblVzZSI+JiN4YTsJCQk8Y2lyY2xlIGN4PSIxMiIgY3k9IjEyLjIzIiByPSIzLjU4IiBmaWx0ZXI9InVybCgjQSkiLz4mI3hhOwkJPC9tYXNrPiYjeGE7CTwvZGVmcz4mI3hhOwk8ZyBjbGFzcz0ic3QwIj4mI3hhOwkJPGNpcmNsZSBjeD0iMTYuMTMiIGN5PSI2LjIxIiByPSIxLjcyIi8+JiN4YTsJCTxjaXJjbGUgY3g9IjIuMTkiIGN5PSI2LjIxIiByPSIxLjcyIi8+JiN4YTsJCTxjaXJjbGUgY3g9IjkuMTYiIGN5PSIxOC4yOCIgcj0iMS43MiIvPiYjeGE7CTwvZz4mI3hhOwk8ZyBtYXNrPSJ1cmwoI0IpIiB0cmFuc2Zvcm09InRyYW5zbGF0ZSgtMi44NCAtMikiPiYjeGE7CQk8cGF0aCB0cmFuc2Zvcm09Im1hdHJpeCguNSAtLjg3IC44NyAuNSAtNC41OSAyMC41MykiIGQ9Ik0xNC42OSAxMC4yMmgxLjU5djguMDRoLTEuNTl6IiBjbGFzcz0ic3QxIi8+JiN4YTsJCTxwYXRoIHRyYW5zZm9ybT0icm90YXRlKDMzMCA4LjUyMyAxNC4yNDQpIiBkPSJNNC40OSAxMy40NWg4LjA0djEuNTlINC40OXoiIGNsYXNzPSJzdDEiLz4mI3hhOwkJPHBhdGggZD0iTTExLjIgNC4xOWgxLjU5djguMDRIMTEuMnoiIGNsYXNzPSJzdDEiLz4mI3hhOwk8L2c+JiN4YTsJPGcgY2xhc3M9InN0MiI+JiN4YTsJCTxjaXJjbGUgY3g9IjkuMTYiIGN5PSIxMC4yMyIgcj0iMi43OCIvPiYjeGE7CQk8Y2lyY2xlIGN4PSIyLjE5IiBjeT0iMTQuMjUiIHI9IjIuMTkiLz4mI3hhOwkJPGNpcmNsZSBjeD0iMTYuMTMiIGN5PSIxNC4yNSIgcj0iMi4xOSIvPiYjeGE7CQk8Y2lyY2xlIGN4PSI5LjE2IiBjeT0iMi4xOSIgcj0iMi4xOSIvPiYjeGE7CTwvZz4mI3hhOzwvc3ZnPg==;" parent="GuzJ8BqgIlNCJu6hI-l5-1149" vertex="1">
          <mxGeometry width="27" height="30" relative="1" as="geometry">
            <mxPoint x="16" y="15" as="offset" />
          </mxGeometry>
        </mxCell>
        <mxCell id="GuzJ8BqgIlNCJu6hI-l5-1151" value="" style="shape=mxgraph.gcp2.doubleRect;strokeColor=#dddddd;shadow=1;strokeWidth=1;rounded=1;absoluteArcSize=1;arcSize=2;" parent="GuzJ8BqgIlNCJu6hI-l5-1007" vertex="1">
          <mxGeometry x="466" y="485" width="178" height="126.84615384615385" as="geometry" />
        </mxCell>
        <mxCell id="GuzJ8BqgIlNCJu6hI-l5-1152" value="&lt;font color=&quot;#000000&quot;&gt;Cloud Apps&lt;/font&gt;&lt;br&gt;Compute Engine" style="editableCssRules=.*;html=1;fontColor=#999999;shape=image;verticalLabelPosition=middle;verticalAlign=middle;labelPosition=right;align=left;spacingLeft=20;part=1;points=[];imageAspect=0;image=data:image/svg+xml,PHN2ZyB4bWxucz0iaHR0cDovL3d3dy53My5vcmcvMjAwMC9zdmciIHhtbG5zOnY9Imh0dHBzOi8vdmVjdGEuaW8vbmFubyIgd2lkdGg9IjIwIiBoZWlnaHQ9IjIwIiB2aWV3Qm94PSIwIDAgMjAgMjAiPiYjeGE7CTxzdHlsZSB0eXBlPSJ0ZXh0L2NzcyI+JiN4YTsJLnN0MHtmaWxsOiM0Mjg1ZjQ7fSYjeGE7CS5zdDF7ZmlsbDojNjY5ZGY2O30mI3hhOwkuc3Qye2ZpbGw6I2FlY2JmYTt9JiN4YTsJPC9zdHlsZT4mI3hhOwk8cGF0aCBjbGFzcz0ic3QyIiBkPSJNNyA3aDZ2Nkg3eiIvPiYjeGE7CTxwYXRoIGNsYXNzPSJzdDEiIGQ9Ik05IDBoMnY0SDl6TTUgMGgydjRINXptOCAwaDJ2NGgtMnoiLz4mI3hhOwk8cGF0aCBjbGFzcz0ic3QwIiBkPSJNOSAxNmgydjRIOXptLTQgMGgydjRINXptOCAwaDJ2NGgtMnptMy01VjloNHYyem0wIDR2LTJoNHYyem0wLThWNWg0djJ6Ii8+JiN4YTsJPHBhdGggY2xhc3M9InN0MSIgZD0iTTAgMTFWOWg0djJ6bTAgNHYtMmg0djJ6bTAtOFY1aDR2MnoiLz4mI3hhOwk8cGF0aCBjbGFzcz0ic3QyIiBkPSJNMyAzdjE0aDE0VjN6bTEyIDEySDVWNWgxMHoiLz4mI3hhOwk8cGF0aCBjbGFzcz0ic3QxIiBkPSJNMTAgMTBsLTMgM2g2eiIvPiYjeGE7CTxwYXRoIGNsYXNzPSJzdDAiIGQ9Ik0xMyA3bC0zIDMgMyAzeiIvPiYjeGE7PC9zdmc+;" parent="GuzJ8BqgIlNCJu6hI-l5-1151" vertex="1">
          <mxGeometry width="30" height="30" relative="1" as="geometry">
            <mxPoint x="15" y="15" as="offset" />
          </mxGeometry>
        </mxCell>
        <mxCell id="GuzJ8BqgIlNCJu6hI-l5-1049" style="edgeStyle=orthogonalEdgeStyle;rounded=0;html=1;dashed=0;labelBackgroundColor=none;startArrow=none;startFill=0;startSize=4;endArrow=blockThin;endFill=1;endSize=4;strokeColor=#4284F3;strokeWidth=2;fontSize=12;" parent="GuzJ8BqgIlNCJu6hI-l5-1007" source="GuzJ8BqgIlNCJu6hI-l5-1149" target="GuzJ8BqgIlNCJu6hI-l5-1151" edge="1">
          <mxGeometry relative="1" as="geometry">
            <Array as="points">
              <mxPoint x="554" y="485" />
              <mxPoint x="554" y="485" />
            </Array>
          </mxGeometry>
        </mxCell>
        <mxCell id="GuzJ8BqgIlNCJu6hI-l5-1153" value="" style="strokeColor=#dddddd;shadow=1;strokeWidth=1;rounded=1;absoluteArcSize=1;arcSize=2;" parent="GuzJ8BqgIlNCJu6hI-l5-1007" vertex="1">
          <mxGeometry x="466" y="671.5384615384615" width="182" height="111.92307692307692" as="geometry" />
        </mxCell>
        <mxCell id="GuzJ8BqgIlNCJu6hI-l5-1154" value="&lt;font color=&quot;#000000&quot;&gt;Data Warehouse&lt;br&gt;(Execution Results)&lt;/font&gt;&lt;br&gt;BigQuery" style="editableCssRules=.*;html=1;fontColor=#999999;shape=image;verticalLabelPosition=middle;verticalAlign=middle;labelPosition=right;align=left;spacingLeft=20;part=1;points=[];imageAspect=0;image=data:image/svg+xml,PHN2ZyB4bWxucz0iaHR0cDovL3d3dy53My5vcmcvMjAwMC9zdmciIHhtbG5zOnY9Imh0dHBzOi8vdmVjdGEuaW8vbmFubyIgd2lkdGg9IjIwLjAwMTA0NTIyNzA1MDc4IiBoZWlnaHQ9IjIwLjAwMTA0NTIyNzA1MDc4IiBmaWxsLXJ1bGU9ImV2ZW5vZGQiIHZpZXdCb3g9IjAgMCAyMC4wMDEwNDUyMjcwNTA3OCAyMC4wMDEwNDUyMjcwNTA3OCI+JiN4YTsJPHN0eWxlIHR5cGU9InRleHQvY3NzIj4mI3hhOwkuc3Qwe2ZpbGw6I2FlY2JmYTt9JiN4YTsJLnN0MXtmaWxsOiM2NjlkZjY7fSYjeGE7CS5zdDJ7ZmlsbDojNDI4NWY0O30mI3hhOwk8L3N0eWxlPiYjeGE7CTxwYXRoIGNsYXNzPSJzdDAiIGQ9Ik00LjczIDguODN2Mi42M2E0LjkxIDQuOTEgMCAwIDAgMS43MSAxLjc0VjguODN6Ii8+JiN4YTsJPHBhdGggY2xhc3M9InN0MSIgZD0iTTcuODkgNi40MXY3LjUzQTcuNjIgNy42MiAwIDAgMCA5IDE0YTggOCAwIDAgMCAxIDBWNi40MXoiLz4mI3hhOwk8cGF0aCBjbGFzcz0ic3QwIiBkPSJNMTEuNjQgOS44NnYzLjI5YTUgNSAwIDAgMCAxLjctMS44MlY5Ljg2eiIvPiYjeGE7CTxwYXRoIGNsYXNzPSJzdDIiIGQ9Ik0xNS43NCAxNC4zMmwtMS40MiAxLjQyYS40Mi40MiAwIDAgMCAwIC42bDMuNTQgMy41NGEuNDIuNDIgMCAwIDAgLjU5IDBsMS40My0xLjQzYS40Mi40MiAwIDAgMCAwLS41OWwtMy41NC0zLjU0YS40Mi40MiAwIDAgMC0uNiAwIi8+JiN4YTsJPHBhdGggY2xhc3M9InN0MSIgZD0iTTkgMGE5IDkgMCAxIDAgMCAxOEE5IDkgMCAxIDAgOSAwbTAgMTUuNjlhNi42OCA2LjY4IDAgMCAxIC4wMDctMTMuMzYgNi42OCA2LjY4IDAgMCAxIDQuNzI3IDExLjQwM0E2LjY4IDYuNjggMCAwIDEgOSAxNS42OSIvPiYjeGE7PC9zdmc+;" parent="GuzJ8BqgIlNCJu6hI-l5-1153" vertex="1">
          <mxGeometry width="30" height="30" relative="1" as="geometry">
            <mxPoint x="15" y="15" as="offset" />
          </mxGeometry>
        </mxCell>
        <mxCell id="GuzJ8BqgIlNCJu6hI-l5-1155" value="" style="strokeColor=#dddddd;shadow=1;strokeWidth=1;rounded=1;absoluteArcSize=1;arcSize=2;" parent="GuzJ8BqgIlNCJu6hI-l5-1007" vertex="1">
          <mxGeometry x="476.5" y="820.7692307692308" width="145" height="111.92307692307692" as="geometry" />
        </mxCell>
        <mxCell id="GuzJ8BqgIlNCJu6hI-l5-1156" value="&lt;font color=&quot;#000000&quot;&gt;Data Analysis&lt;/font&gt;&lt;br&gt;Datalab" style="editableCssRules=.*;html=1;fontColor=#999999;shape=image;verticalLabelPosition=middle;verticalAlign=middle;labelPosition=right;align=left;spacingLeft=20;part=1;points=[];imageAspect=0;image=data:image/svg+xml,PHN2ZyB4bWxucz0iaHR0cDovL3d3dy53My5vcmcvMjAwMC9zdmciIHhtbG5zOnY9Imh0dHBzOi8vdmVjdGEuaW8vbmFubyIgd2lkdGg9IjI3MS44OTgxMDE4MDY2NDA2IiBoZWlnaHQ9IjQyMy4wMDQwMjgzMjAzMTI1IiB2aWV3Qm94PSIwLjAwMDQ2MTI3MDM2MzMwMjkwMTQgMCAyNzEuODk4MTAxODA2NjQwNiA0MjMuMDA0MDI4MzIwMzEyNSI+JiN4YTsJPHN0eWxlIHR5cGU9InRleHQvY3NzIj4mI3hhOwkuc3Qwe2ZpbGw6IzQyODVmNDtmaWxsLXJ1bGU6ZXZlbm9kZH0mI3hhOwk8L3N0eWxlPiYjeGE7CTxwYXRoIGNsYXNzPSJzdDAiIGQ9Ik0xOTcuMzc4IDE0NC43NzRhMy4xMSAzLjExIDAgMCAxIDMuMTA1IDIuOTM0bC4wMDUuMTc3djE3LjEwN2EzLjExIDMuMTEgMCAwIDEtMi45MzQgMy4xMDVsLS4xNzcuMDA1aC0xMi40NDF2MzAuNjQ5YzAgMS4yMjcuMjk3IDIuNDM1Ljg2MiAzLjUyMmwuMTYxLjI5MyA4My44OTUgMTQ0LjI2MmExNS4yNiAxNS4yNiAwIDAgMSAuMTgyIDE0LjkzNmwtLjE4Mi4zMjQtMzAuNDMxIDUzLjI4NmExNS4yNiAxNS4yNiAwIDAgMS0xMi44NjEgNy42MjZsLS4zNTUuMDA0SDQ1LjY5MmExNS4yNiAxNS4yNiAwIDAgMS0xMy4wMzUtNy4zMjRsLS4xODEtLjMwNS0zMC40MzEtNTMuMjg2YTE1LjI2IDE1LjI2IDAgMCAxLS4xODItMTQuOTM2bC4xODItLjMyNCA4My42NzQtMTQ0LjI2MmMuNjIxLTEuMDc3IDEuMTYtMi4yODkgMS4yMzQtMy41MjhsLjAwOS0uMjg3di0zMC42NDlINzQuNTJjLTEuNjU4IDAtMy4wMTQtMS4yOTktMy4xMDUtMi45MzRsLS4wMDUtLjE3NnYtMTcuMTA3YTMuMTEgMy4xMSAwIDAgMSAyLjkzNC0zLjEwNWwuMTc2LS4wMDV6bS0zNS43NjkgMjMuMzI3aC01MS4zMnYzNS40MDVjMCAyLjUzMS0uNjI4IDUuMDE4LTEuODI2IDcuMjQybC0uMjE3LjM5TDI4LjAzMyAzNTAuOWE3LjYzIDcuNjMgMCAwIDAtLjEzOSA3LjM3NWwuMTQxLjI1NSAyMC43NDEgMzUuOTIxYTcuNjMgNy42MyAwIDAgMCA2LjMyNyAzLjgxbC4yODEuMDA1aDI1LjU3MmwtMjIuNjA1LTM5LjE1M2MtMS4zMTQtMi4yNzYtMS4zNjEtNS4wNjItLjE0MS03LjM3NWwuMTQxLS4yNTUgMTkuNjc5LTM0LjA4NmgxNDYuNjA2TDIxMi45ODggMjk3LjFoLTU0LjI1OWwtOC44MjEtMTUuMjc4aDU0LjMxMmwtMTYuMzMzLTI4LjQ2aC01NC43OGwtOC44MjEtMTUuMjc4aDU0LjgzM2wtMTUuNDY1LTI2Ljk0NmExNS4yNyAxNS4yNyAwIDAgMS0yLjAzOS03LjE4NWwtLjAwNy0uNDQ2em03Mi44NDQgMTY2LjQwMWwtNTQuMTgxLjAwMSA4LjgyMSAxNS41NTJoNTQuMjg1ek0xMDQuOTIxIDc5Ljc5NWM4LjQyNyAwIDE1LjI1OSA2LjgzMyAxNS4yNTkgMTUuMjYxcy02LjgzMiAxNS4yNTktMTUuMjU5IDE1LjI1OS0xNS4yNTktNi44MzItMTUuMjU5LTE1LjI1OSA2LjgzMi0xNS4yNjEgMTUuMjU5LTE1LjI2MXptNTcuNTc1LTMyLjc0M2MxMi42NDIgMCAyMi44OSAxMC4yNDcgMjIuODkgMjIuODg5cy0xMC4yNDkgMjIuODg5LTIyLjg5IDIyLjg4OS0yMi44ODktMTAuMjQ5LTIyLjg4OS0yMi44ODkgMTAuMjQ3LTIyLjg4OSAyMi44ODktMjIuODg5ek0xMjcuODEgMGM4LjQyNyAwIDE1LjI2MSA2LjgzMyAxNS4yNjEgMTUuMjYxUzEzNi4yMzcgMzAuNTIgMTI3LjgxIDMwLjUycy0xNS4yNTktNi44MzItMTUuMjU5LTE1LjI1OVMxMTkuMzg0IDAgMTI3LjgxIDB6Ii8+JiN4YTs8L3N2Zz4=;" parent="GuzJ8BqgIlNCJu6hI-l5-1155" vertex="1">
          <mxGeometry width="20" height="30" relative="1" as="geometry">
            <mxPoint x="20" y="15" as="offset" />
          </mxGeometry>
        </mxCell>
        <mxCell id="GuzJ8BqgIlNCJu6hI-l5-1055" style="edgeStyle=orthogonalEdgeStyle;rounded=0;html=1;dashed=0;labelBackgroundColor=none;startArrow=none;startFill=0;startSize=4;endArrow=blockThin;endFill=1;endSize=4;strokeColor=#4284F3;strokeWidth=2;fontSize=12;" parent="GuzJ8BqgIlNCJu6hI-l5-1007" source="GuzJ8BqgIlNCJu6hI-l5-1153" target="GuzJ8BqgIlNCJu6hI-l5-1155" edge="1">
          <mxGeometry relative="1" as="geometry">
            <Array as="points">
              <mxPoint x="550" y="802.1153846153846" />
              <mxPoint x="550" y="802.1153846153846" />
            </Array>
          </mxGeometry>
        </mxCell>
        <mxCell id="v5ydKry3m4Xs0vGYlW_U-2" value="" style="shape=image;verticalLabelPosition=bottom;labelBackgroundColor=default;verticalAlign=top;aspect=fixed;imageAspect=0;image=data:image/png,iVBORw0KGgoAAAANSUhEUgAAANgAAADYCAYAAACJIC3tAAAgAElEQVR42uy9CbCt11UeuNb+z7n3vkGTrXmwZMuyPGPLAWMcDKYbAjQk1QlWp+JKu+i4bOLEGEPokO50jNIFFEUBBQldQFeHTnW6umNT0GE0o/CAJ2whWbJsPenpSfLT0/TuG+58hn+v3v+/915r7f3v/5wr4Mp+1n/spzude8659+7vX2t961vfQhhuw2248Y2I8Bcf/MWV3cuvWaun8zW7Y9dwrb6ioupllYFbEehV7m4vQbIvMwaPINLT7pvuApj/xuHDh37z3Re//bR+PBx+pcPt+Xj7AH3AwPobjx4yW5dOt+1l1Wp1Mdn5C9CYm4yllziovRSsvdFU5qbRyugIUt2AD8C6f2QBm/fdP+MQZEzzD8FO5vdZhH+LV2381vvM+yYDwIbb8wJI04dvu6K61F5ZzemamuorKwtXI8I1aOA6QHudIbze3fWa1SOrqy1wrAWoHaDatxYIGkA5ELn3PGjI/3Poae/v3ncYg/HayP3Xbsz3pndcddXF//52vH06Gv4Ew+1rJbX7kcf/v+sPjasbXZB5UYV0o4PGjfOn6crREXsFzuEyArp8hOaylYtXV7BBhwMPWAekAKbZ9p4HDlEbeZr3oQVReF+BqnkLROHz7SuA+d4MRuPq4lE1uuPUl8+dcJ/8zSGCDbcL6vYu+pXxZededJ3dpVfiyL7U4epmh46b3UFvotARl6kdccma+wdHxqsrlanQBakGRD6ta4DUAKo5+AYDaMADCkgBCBTIIEYv+VwEmInfy49DMF4dgZ3Nv7C7M/v2AWDD7asHPJ/97BiuOTWGQ4fGF00Or06rneugMrfgbPYKd+hvQeP+Eb7YgD3kDvjIoWXkItFoNDKATTEU0rsWIK5Oogwo8R+neaRARhKxWjCR/j73FkNka+5I0H1cjmj++0crFdTT6bsGgA235zyV+8EHf/+ivUvxyMrUXgS4erQydO0c6CZ3XG82Bppo1JAMN5tRtebBooFi+YBDqI0wjy6QgsOTETrSKIA0hEVAQfK5AKr2uTBNGzWYmteDgcyIr6N5LuMKPLL17w4AG24HFo12Ll2/7LLDhy6fw/wKY8wLTFVf7fB1gzt5L3JAu96d1Btc4LlhdGh13ESbJo2DkMY1JAOnXfGQa9CEr/loow4+ZGkbtYhpSYgWnADq8YjrqUhWSIooj4nhOUz8/gzMwBEufg9//ekBYMPtr3V72333rVx22RNXV6OV690BvtYB5EZLdG0FeA0ZuNwd0CsdeK50h+2K8dHDo/biX/uayIZ6qE3tQFPaETz+/VgDpZEKWrrcaNKhEMViXWViepeA1AbgyechpI0MOI5ONgFf/Fpem+l6zT13PQBsuO3r9n2PfeLQVWb7Bru2chPM7UsQzS0E9mZ3iq4Ewovd6brIHbCLXE108WhttcK2JGqikQdTSy5YYsCgAk+8IehUrS/ty6IXA0OijSlEuhYwXF9ltVUHjCpSoURCAz1RTr8OFUHd95wfaPrhBh8gas6kOUO/X5lHrzkEh7dvskgvcwBy/+hmsvgqgNm1NY7XYE5jB64Vd4JWRuOxAQzkQmToGrp7dy+JRqCAs48qLQEhFgAZAUFttAiPjZAAMNR7oV7yd+AUkT/nQRXfxtoquQ9BgbJX35v9bHyRMA17SfcOEex5BKKtJ+85dPTI/NDe5u7h2cqhw1Dv3mCq8UusoVuphhc7dLzCQeTF7qiM3UlBCkU+NSoFxaw1n/QZlO2AQ5/dFFztd2XKhlIEI5UO9tQ7PelZSpdLZDMoRIevwaRuMqRrqO5zmYQ17BIlneZz+Pp4XMF8Nv/xAWBfY7dfIRqfOvXAJXB07wV2BpdZrC+ryV7l0rMbDeJN7qr+Ype03WTG5jozHo3rWAuRf9u+Hw6uDWmT5+tsJ5VLAdIPrngACWAJwPrBlLODkDB43boo/36u1/IaT9dm1E+9IygmUjWYTQ+wq5EBO51/6wCwC/T2C/bY6pknNq4ar65dbSt7rZ3ba9xf+1p3jK+xRFe5v/F1DhTXOhBdPjq0WjXAqee1A1D4V7t/LXjI10ohwshbysAVIZICCoqpYD+A+sC1iDQoRYrIBhq0KvJ1D3pkEVswREpeMYdGsYAMmJA2agYzsohpBEtBHl/fqEL3u7bHobLfPNRgFwCQttb3XlyNxze6P+aLHVBucn/FF22d3b1itLrSRKhLoaYXmgovHh85bBqw1PXc/atdDWBbIE02t/yxJQEPZXDJU7m0Giqld88GWCVAQRbxdA3VjUqQRT9RYnRT0AiqWCslKg39/cnX069x5Ep6YfnrpKw2DI87qtzv3X4UZjiQHF/xGxF+4Md/HI/+wDcdWl299qUuw7vVjqtbbD2/pWm2Ts/VV42r6pD7+DAhHnJ/6bVqdQUbmq6huNvIZH00mmxtt4mdAAk6UQeWEA3UE19gQWq3CFz7ebQUxkJcQOEgax0gISRUPh98jCDj33EKTk1QRDAmhEf60lB9DhESoJV+9pGrvyZ704+/57p37wwAew7IhZvgkZVz586tXVwdGU/H4yM0sze4P8YryNqX0bljt9of+ke3uD/xde7IjCxC5cKPww8aqCr3AbYgalIRS35UYr43CREpj0YU/9/l5Qqfx/x7FSBRfR6TU9ef5nVrrOWfB6DCIaV+Gh/loJucuctBEX8ZqH8BIf3DwEKSvEAGT2wao/zyOL2lNKXMo5pxtdfu1u4Z99q+0IJtgMDfHLkAm6cuOVTPLrKj+qKaRhfb2fQ6OP/wS+cGX3LEXHzzzNJNOKUbq9HIgcUBxmGoLb6bOsfKgfast3s79zNINnzFqgik4UCFaGLV5zGDjn6M/KKtzhTfbAcEaWJWSuGg93M5aDADVfd7S2kYFC4WXMvp1BEhSRWxJzoiqQsILYh8EVSU16L+E2MHsNmM7rIVPDYA7K9w+7UTJ9boqvEV02l9FY7sFVibK9wv/Lpq47Hr3B/2BlvRddbiddXIXLV25BKc15FU8KMRzdv5bMYsHadypKsi9VanJxoIDUDb4xnB1z2+qABYilJ9SVqasOXPDPuOYLiwdkt7R/E+Zh8g0z+NSRrQ+kWog8+9K6mn+K2OioWUMI+uSBrs3ajeRDD3/Xf/wJU/8MQAsAW3f0/3HZ2tj2/A0eh691d80chWjRTo+m2iq6rp9IXuaF8BNV1uDF56+GgzIVG3SoVGtdAQDK5mcqnCNkcAKlRDi6sSSu7YTeYWf1ZXXNgBXgQkFSqgvhqpnxJZFK1wX7VbidBQESlnFilVYJD6/gr1UymiArrNagZ3jF4o2sfkeyn9fPni4J7boKuDJzOy+Pn48w0Aa+qkM/e9aBUOvXZE+Er3e7rFJeYv2TvXgucIER6tarrIFUOHVg41Fgxh4rWhfBvpjwPU7saml+dgiBkkf3RKUZIdfuo5yul9MIttqCJWPxzkAFiiIlSoF0D5q4CsDts/VU9LU8cUJNSRHhW+Fym5VJjO46SMoY5WWvGRAC5+HiFpqGt2EXpSzHirRhXMp9PjWJl7n7cAextR9QZ4+OjsKfh6B5rvdQfnrSML1xPSKiGsmMrFrPHYAyZeyaxXeU+3d/iP4GlebO9nst88JakZFQBBaa1E3URLGrPINZCUBtQb9XRKJjDpAQeVU0sq0uj7YwJzOmRZoxV7AAcFAiOn8fM6EHteTxKpNFsIpIgTyn5wKqSutLCFYCrT/EKP33LNLfc97wD2k+dPvnB3Mnnl+OnHvm+K+PersUv5ENSIg0hr6umUDzcGKhjVnyuCC9WBMsk1PqUN9NUZiolcfvWPKoq0JuJHxe7XupVXXzyiDotHhTqKloKKiiAqM4Ol6EZFMHR7YtShwf2fDNsmc5pHEzOBiFCsZzu1WnJ/0RuWfnsmj2AoZXKTvcwm0+bT974V3zp/3gDsA0+cuMm9+bbJdH77iKpvN6sjQ3WYOcJOdzFNLfZ5HcbO/UpAgoxw6AcGLarJkostAhSruxLENHjKqR4/P2lej5ZGH+hJdbG3WusDlsTsbo2WXoialC899ErYCykjqFnFRNyrarVIbpTFxenlyIAGcLhAG9PU3+tmNPq4/srXLMD+5fHjl1SHq3fMgf771cNrr3P1VNX0j+rZNKR01HMkpObwhXSMVCg5eucqK0mLHM7s+kl9h7EEEg0TKjJ9+l78CFROGqFAilAvrU9JKlSGPC285JT6ZtTz/SmZEYcikYkNvi+l08QSeShlH1Hub4KsIzadEwkUQpE8YR6eUoLEBCCaMIaDmQC4sW6b13R6Y+/8J7/mAfavTj3yfQbxh8y4um00Hh2qp5O271SqUnXRa7L6BTvJDypgEf/XYDcOYQ+Dlx4x2wEF9VDfi5g+WkKiY6EBoB/L9hB9fZXeMsEuZReevpEVLNQ0GlxJyohZatYirp8M4agV3hiCdNwEMm5fkx+U0fagRmPy7w+Rr511I7jvR170I2e+ZgH2Pz3yyDX1Cv6E+0lvH62tHrGzWTub1FxdEFEJRTFL68JVFrt9F0xgRhno0vtT4bqdRxs5CrYXVtQ5t7SgAupLJrvPVK6vsvoQc5B1o9Ui4mM5a5j/LmkfUVBIGa2gwA5V2QV/kjZG4a+qubD0S0dIKHkAUY0U+2vN77iuZ+6DP85/jq8VgOGPPf7ot9eIPzdaHb8K5nOYTyb+amTSK9zCkQlSf7VOLYYLPsbCgS/XXiWWzS6ojUClb1HhDiWqnrpMXonQ6I9yGHSM1EtU4D64xMXKDSoyhn2avg5dj4XAg132kdlCFc1yjaMUsqlyP633gNNEIpDai0q/F5wgzr72APb+xx47NEJ6Fxnz46YylzYMoAm1U8ylIf8jYIHlyvojeaqDnRSxS3JQobbqS+cSeRzHOuxhFf3hxwLxQCrFyes/SC/KRYYxPlo+77XogoFLmMX8MkQLa7g+6nsBE0lpZOr8LbQsStVrgFmzOulFoPLbyMBOkEUtPfXsUe4uTI+866p//tDXFMD+2f33vxDR/lsYjd7T/Aasi1wGsyuU6bnuYklkujhm6ajGLC/KR9SnRSfax1EsR73kvtSl9aWXRp1HyskLKrQGqHjfft1G/pvCQmK6+HfaD7KU/Eg1inkfLDH9xDwKKWBpKp3Sv2MblZR0Ks3zFxA5kTAh+YQrQ36ndNcLFmA/+PjxF41g9NPjlZX/DuZ1q/PTv8XIEskVrft5VlRj9yqIqs+lP+5jEHXjloo9pj6RbgF8REmax5pC1FMWWu0OvbR8rB9sHkWJii0CA6moOK8vccGFAouvIWcJKatxu8qKfEI4p+kRNcWeXzcpYwnFSi03DNU1WvJcqCIlQHeSmiCJuk2Nb2n0h18zAPvhkydvQLC/NFpZ/R6aTdncxGB6Re2Aiz+P0BVsYgKaDhPWQ89jD5DS+kbqJezpWlEhluXESSZPlJ+CFjeEUy0JFVI3WhhZqUDoQE+quVgRX+p/lflNLEY1KnQ4Uu/CvHaO82OUEBVdYkSV3okWsZQxJOSHaaaX588Yu3Jf6bdvLjRwve/E2UtroJ8aHTr0PZbBRZ0mIfaF9vyXlhfOQb2RKgq69QDt+xWTIjH2M8hIS7nDflkuFZlIKkS4cjLaT/ovFu1SkaQovW7996El/TUspNjJxU0rMCBlFXNipJuyqygYU0RSkR9x4UUigrKRRxnAPzHXmM0LHmDvtcdWYbTxEy4tfPt8b8+nOUVOmGLdqpTS2R8Qy3XBYnW47pmlVz0AmZvaV/lP6fMtEvDmsKNesO+vS0Z9Q5laP9RTGz7bG3V+d1Q4uD2Dk5yFYBJZQKV46k8LibaQ8jET5R6lNG6oWBHdc8POjFpmwhOiZzO97Aq5P/5+/P69Cx5g+Pih94/GK+9pIpcWbJauy4luL6tLkqteD62B+6ahi5xeZ0542XHVzGIfIKlwAHs0HdB3+cgjCGW8Dy2F0/4U9V2iY5EWMU8VKfnjxcNOuOCPoeomoCy9zHtmlIGVSJEiBF0VPXWB0mROrviabO/OLNLdfb+tCwZg7/vyqb/vfqg7WqvlPN1Qs0HiC566t0LG+kWBJmTUvL+S5QwWZr8o7IKtaOewfB6qNDLSX9GlA5Qpd9llLlNNf+kCkLfbCaBLhyycIu6L8pT9Xkv2ath5DPV5zLeh6OHKVD6VrxVCzL3iobwRBbLvJzHN6bxmzBQn7p1RawQOnxkjPnlBA+x9J5+5FaD+idHKeIVI7FZ1mgCZsyspdYbuj5SuvrSMpsduLo5Fvqx7idUaROrh1/qgR/sxl6FFlAR12D/qFOvKBXfpcAntI573KT26SojS2Ef/I3eniEu1MejEBtOIiTn1qPw9FjAySYqpwThaGTXn65OHX/jCCxdgHyAaWbv7v1arqy9v+lwLaYI0iYZyP4qKxSvXVckVd8EsFMICYnw5O0e930WdDpP+HpuBmRbWYJhxl9SPS4QlgO5+jpaSHV06HnoIA8giSlqbUYeKB67NUuIEsZCGtkQYdjw2jE4ZpX/RAVPp8ts83nR32rCId92Ot9cXLMDWHz35DxHNd6XgSkN1CiathM7MTPDZXJ+xqFzIAdiHP+oBFy2dtOrKroh6ahuiBb0p6m98lz5LtA/Cfhn4cJ/365dPLaL5O/Ni+VYWkt9L/ifviIxRsYnYX0tCz4Whde6d18fnc/vQot/RVzXA3nfiiZvMuPqn1drqUarni9kH/UvpKK+zPgfk8zzLHxo7JTcs5PFw0WEl6olPAGWFQ/9x14kgFQiRMp+YTnvRvmaPl70W6k0JoVBjlcGkecy+3wcVKdQk8mHhItxzEcRl56Rn+cRoPGoo+i9U57e+dMECrB7X/wAr8031ZC/dQpiNKyQ6AyzQ7fnsF5b7Kvu5BnsbZyxWSjmBjNQz6YXIn0fo19zLT2Wz5+sClDp1VVdJEQv9nPrQXiF5VNlf46HcB8OeuS8BE/VYsqUehMnfkzBx3gXN+mG6yijSonGWC5XSx8SaEzXzSFkaSYVLqn+cJqMia7/wzlf8y80LEmDvOXXqRpcCvBeJMiVGvDplUia9nqanTsDs6pemH9gBnQEoXnGpIE+iglkmqV9ycl+iBalkKVXDpUdclRBFVQj00gnlZ16m2sAlryff5dX9HCRmNZhJv3QpLX8LSsxr2CAUsvkvlOsvhtqSazCdNqqNKqXXl3tyiDQKYTadn3FY/9yyc/zVCjDE2ewfVeOVG+v5PPmrdRkfSibk0g4+9TKHJeIo996gHkoedfyg5UmUzSJVL0NG5Uia2mAvr5VwaaqXpW2IC2n3RfUlLLR66zcPhYzK70Y8KBIcCfmh5E4eUHpwkpJFD0S0IEIW+LHOvJwCW6PeMPD4ajX69AUJsPc89dQR92O9o451V1HWY/eB0szaGPvU3PnJzPsx5ai3/PgW3qP9HdxSNOiXanV5SFpAeXQIF+r6KC6ifnBhnbo/h95S2lhiFYl6mNzWmz5rJGN32pgPOhYIMj14Gy7ORMvaBP5dW9PD//jyd528MCPY1u7fM8bc2hrT9EljOge9rKcrqR4w08b3Tdb2tE2KBEleNC8GUgFSlF+v5WewhUsMLtRcFA4u7Z8ZpAVM2jKNR2mmq7u1sgtEhPLFL1fdaAbXACYehvnurqTey0b9i8+N+fMV7NncO/VsNnOI/cR+jvJXJ8DG1Tsw6s+yeidvGFMhX9YAsEjFXyr0XlWz0ZSCGHhROqRrsXSKudux6uuWLfLY6JdJ9UdTzBT0tKSW61/gQFnCTAvB2bVho+JjdgkFFeGKL5YSwijPWvQ5kQiHQnQUyZNgjkNUPBPxtxeUIps0oz+6IAH27mOPvBLQ3MbskKJPsTCZjJgyg6jfslurTdMUhAWRsAS4cqqTypYocZDSB41rMCpf97u6QFVxUTGpA0vdaEWdKo2Kz5DbkJUuAH0LymEh6aElSFhsMuvnNp15sO6SvTirp+e8BHxxnVFh1ozK2zCTjZWdaEq9zr+yqK+JmvjUO6//p3dfkAAbrVbfgWQvSmI6Fnog2O/l0D0QWKaB9UFA7FAYXb8HGdLsnjNcygwiLq6gEJZcrZ/lBaFMSqiLApGi6Mvj/n1M4qIUUz8LFt5PWcP+zZfYVx9r01DMOhOkaHrQ+5cxq9GwbM1NVJwA4Myk9dO0Hy34/l0YACOq31qNRyuUh3HsHA/5nmyboQCGipQB9oKtzw8d93G4aeGBK/kWkvqjFokIXJROQtHjsG97ZU6DaLFzH/FOC1PWcq+Meuqr0gXAFJjB0uc63oWYSZu0K6+6kmF+UdOTyKyCKQ92YpFqatftNl/87f2e568qgL3n4YdvRGNubusvzJu61DWmwbygDR9hXhRjp0Za5BCVFuNYrNdsIUKVDjIVKqe+rSeL+JG+ieESSYOFq3I3spK6Wi8yMFjOmmJRdU8LFiWUq8e8hi2yvfmoUUGwi1p3SRqUtPRnK3nkC+1vGoBtnNnb++QFCTCqqm9wP8W1zT6t0pWypLkjBOV1WJAZYZe675M65YDs/oGlsjCwOBr1lf79pEW3/urlBzt1WTjm1AU9Lao1sZtA9s1q9f++8npy0eJzgPJSBw0m/fulBe2RLAUlGTdJRD7Y9ZMved4n9RqWf1/GWwB+4ugNRzcvTIAhvt6MR5dRs2uLU0PMmMN0M4bk1DJJt2hqWW9FSVUgWQTraNIgeWxLPcJdxE79RR02rEtMlCePy968vR4emFZ0pEiWorcU5ffsZwb79JGUpVVFkxigZAar5JlV/hoqUS+lJAVJ5O7MfaGyyKaUfAHdjMZsbZEmTzo0PbXridwZ/YN347tnFxzA3nvs2MXuxbzajEaZGNZmmsNFjSpccjXdF8wXiIowYd7y6GSVkpuKh7HsNt+/RLX8c5SSLYTSGqTFPaulJEvv6lgo9qXK39s/HtSNglSQWFHipYLKY177zgtrT+lu3Mx7A/WVRU8/Ey2ssZvnnU9mUM3nH3025/qrBmDTtbWXuzevokYalRetSYAoERoZ9YzdCLSotklJD+wlNnAfTrn9yVk/U1iMCeqN7RlyyXtufVtV+omY/fj0Lq9bYElHDnsPHy2o1yCdRsquBKgcfDETNOudAx22EbPp9VJjGbvChlETvYDu2l2pn7wgAVbVcDMafImdz7o0PHau1cX1MphZr+X3x0IHv+Atmuz9Wh7vyrVKubcFS91x92su07lo0CKgL2pG0wK2bxkgqePbX2ZoqXOIcT+qnEL93L/1ssxUYh6dKPPgp0ItSV2LiaoZT0H82ORcdeaCA1izddIaum18+FCgXXuG35CWpIm22EvpmwjvTYCS6Ke96hH6tX19lUrfsV/M2lHZwkcdFttLi1CPFj+1Sut3p1pmMYc9WUCfPVvJXLSUkuuo1vVM1CApYJDSncoS0aKmMZuAoJxIoU6aisn2lMa33376fS973+SCA9jVJ09eg4hvrmcz76GRWJqJKDNlwKhH/lRyL8JiRDMLQNh/oLAHDKhs26jEkhe4wvQjuwScixLSvvEZX5JgEVCLHIFxqVtUuY9IhWUKfb9P3AdIk6/rZeWYAqvzwMwkBlYSc8q932Ah/4VXlYHZ3vQkVqMHn+3Z/qoA2MROrga0b2js2DBTa3R5V0hID1IWyHzVSVQe2LPbV38cr57pvt+SbbZvGFPvlZi688WQayV40XdmDIrqqptGIJs9DnV2PqeJYB5lu9GOqJ96X1R3UYEmz2n28vwXdfw2ymDEAiNJUjORYhMxHUnBzkiK+l7KF6NTwYOFMtlWYA/HTf0Fd+9N8ZELEmAjM3r9+NChFUzdR4qXlrL1F0K/mQ1l/Y8Si6WOFZZjDfbKXJdurFtSxdD+v2cfoW0Zb7oPd44lTeU8BexOLy+PeqX3qbc/pVOBfLS/wwJSOpWsL7j5uSGkhUQQK068Lfvd777u3acvOIA164fcm/+qYQ/TiVYsSGWg27nv5By0jwMVe13dKeZkfqx3vXd5hXmf5q/0GepJs5aPVHZ3gPWrSWhhYrp/SuXZAMX21ml9VgK4EO8aLJhYXCcpfk6AZEwyAWYqetl2uUj1byqEyc50A9F+/q9yvr/iAJsac9j98G+xdZ2kYokHx8LrPS3N85dLdlS6iIXmKuYcoSSXi1b1LIpRBEVVZe975evs4j5VrGWpZ0zl2cbUrkal5HVYJi/6QZe2G4ym4fsA2ll2DtqyWXplpBlBoeUR90NDheyqaguHx6oZ3XtBAmw+m73GjEbX+OFK2/0xTdoUwQXpYxx/X+QpD1BeRZQf165usd/ZkOTlLbwMlA5/5zJB/Ue9b1UQLWApi2kPLWZRly166BNF93lb9Cs3yks1sBDFuq2ZAttIaW3bUekrbWJ3fIY6rtDt1027mO/Bt1/3g1/6K5U/X2mAmZH57ma3F/LwnC10FjMf+nwGrMfYEmExNajTwHKqUDhuRAuONvWYiMblDstszRYkikQLv2eR4r1MhpQ2nCxya0zBm6d45eXmACUDGS3NMgVRrd7Rhbm6A7WvYbkG1CJwVEY3uGRHmViBEdde071p7Z7zL//K5/srDTD3x/pOUlZmuU88FJygcg96TgswFTCVQYdLi/r+UfZFh7l7D727izJfeFr0PT10ir6n1VflhRCj3qV5tE9KJJ8oNz3UOkJpXL9/q6WBfodfXSOV1n0ilZrV1FlvtOjvWBIsJGD021HPEuHHL0iAvfP4/S9zEeHFemNgPlBp8ny/oADvinr1Ngws5PPLt6gsv+FSA4A+8qNLee+H6YOMHKEFltma6kfeWEk9ldYyw9XyaH8fiKAIrMXGqpSocaTs1VPqIRJhVtuhRDadZeRmR1So7aGQJurXZfw3PnPiY0//+QUJsGr10H/tfoS1SJfq4Ti9KrU0C4UFikADaPHhWbYwrvs43WeynSSwbw8D9gBvkWEPFX2hAMrmAlA0ItXPpFNNKgJ9kXt+H2gAYOEmyuUEBywgoTo+Kzk1H6eSYy9MvY4MxJ8AACAASURBVA7q++sQ9dhpYyeCWmubKPaJO26/Y3phpojWfCuOqlFOnyY0fGJikk83F6ukzh4s7KUEUpsAU6jFkuenHtEtpc/LYMTFKSXtY23DPs2giq2DxfVUCvRFxBD2xO79XLywWK+V00t94cp+uZ0sRjOFSYqoxL0yBU1serPsYqABbWs7NZb+01+LY/hKYesdZ09c6sL9q40xKg2Agh12ep3uXEUXGthgYvQiqgwseEVAB4rlSoh6qfWO+xWVF4n3EiNUTi1TEVbJii1TGFKPkiPbGbaczNC1Svp9kfg32SHVE+iLTYW6ShBUG7TFHgDTocpOjQ6drSlIihQKu8KIbG+LBgvReLzSiHvNf/nH17z3zy5IgK1umG92b66E5AfHJM9O1BeI0PHXw9JELXRYp/SKvEAIvMCzviQoXDasQsWo0rOZYUElRAWSgHqsapbXlJiNNALsd6dKTkoYyBftSdetyAxC/x5t8enQSxxyIGbA0PInHdWSNa+ghL0l8XF34HO8Mob5tP5cZab/81+bJf+KpYdYvwkNvJCnlzmfLiwVQBVpEDoDmH1iXOxJcxAKPoeYp5yYSWzyqx4uptqX0Pn9wKSFWhR9icEFkWjxZrLlKV6JnaMFSx3KpjV96SMVqkNaPJCZmN2k9myJRjHLfxMAFokOZAa68ZxfacA1mX2unk3e+fYrf+jBCxJgzXiK+5leU62tFo0eF/Cq+75UY2+5LWAq+aCXlhaUkqp87L43WhWi2SJ2MU0dF9m72YUN5q5+nnqATkuIB+qpdftfd39DuIeOX7IJU0AhW1TadzHLYpL5LurS+u4LlStJGvlTI+Adr47bfw2wyNqZrevT08nsV8ajtb/7/de//+6/ibP+FWk0v+DkiVe738DNvG954a6uxY3Q0vKG5T6JcrxMzzW8zxGw5AhVrI8Q+5xGe+LJ4qSzvEq8QGpQn93o8nSy+xy0ZParz1cDFtQ7pUaHjsaZX6GSdiT7tjHdRBlRhCTRKP6rKr8RpZ7O3b/ZLljadB+es2S30MJ5l0k92oh555X58DuveM8Df5Nn/SsCMFcKv8aAfSmFzSmoDG70au9OYYzdektnd6V5p24zs0xpGOjXL3aB0tcolnEXorLEyC7gE/frorF/XaECIS2vsfpSx5LfPC5gGUsXPyxEtLwq7ACXxNW3eBGOQGoiEvqtJ9WoAdIMZruTTQvwtEF8ao72abT0jLvvE+4vcJKMOTmq8bGze7uPv//F7z93kGf9KwIw9yt47fjo0XG9vd1edZpQb8LBMZCqNPz7ypUV9dcxizdYAF2+R6xQ6KJAoGRmUzqasokjl0NBmLWiXlt1WkBHd9JL6qZ/XUh2bbPL3TKAZfssSwsceu3NekiCvjEWXMDglUw/k4jlUjuHn7b5G6NSIxCv92Zn6poecb/NU+57XCSik+4Oj48MPFPXdt3d65mtJ7ee+dHX/ej2V+KsP+cA+x8effRagPq2mB5iUiBnQ5VK81LK16mTFlKHak+NRxfZd0LBdqz/qm8XUfd6wh+gkKRRsS6Lr7f02J0xF4JeFtEuYToXiZexJwaaIlFBHeAsd/TNgIvIfyNksksNXTY/qLVEtT3tAPMl99njc7AnRu4t1fSoA9O5EZnNPcLtF1073rgdb5/CV9HtOQdYtVLfADXc1kwvFzfOLRwl6N+0GP0OMauguv7q2HvNTo4UYm+tpGuVYhxZthQkO7yUzTpDYYMmFBLExXub1Suk/Vr49Edr6N0LRh3uVk9gi66viT6tc2cbhdrenrvIOpDYZiGre4kONzR3f8TTDk3H3F2+6PKZB10ZcRzmo+P1JfbMRZO1WX3+idkP3vKDM2w2elwAt+ccYDStb1255JLL5tub6ZLqwmHvm7Uq0ezl5XG6damPHhZHV7BQqNNSZWC3gLdQaDovAgTBAkO4fDle+qrSuo56JspoX2RKX5Trc5sqsYI+hTOtEh39JDDUsxrm07mtDJ53H2/WYHfcz3HagekEGnvMonuL9YOrc3j4X1zz9qVTw+9z/7tQbs8pwN71+OOHASbfYmez7C+ptWVad5bWWukKI8U2qV1i0DN+Uk5h0vqtBGfqoSOIyrVaiYnLnTLKyV+Bcqc06YtgIoDMpaMLp/IUNC1c4lAiNTBhW9WkbxuRKlcXkY9IfjEdTHb2YLozhenuBCbu3972Hmxv7IGLRJ992etu+tlLrrj4C9vnnjz50ze/+zw8D27PKcBodv4SHK29xdYzqY9QqFlK5oSA6ViCaEhjAbSUBrrippS4SOVV2LFjo8yrHBMrbaEDun5PhFA2jqHU+Caf56IiLQI9Aia9PEL9dgiKM8q5QsPuc3xFXxjyvlUbkdAPHjbkQvv3mFvY2diB3c0d93YXdtv3HZA2t93bXdjbcsDa2oOdLff+zsTVBSOYb+39l9/+h//LB+F5dntuAVYdunFUwUuhtQfo/lHNAiJDb0wp08B5yhLTQeqdX8biWofceLQLlrIAl/bFPnYqqc48F/XuaoGiDl69SupqHvVFgmDButzg+9hS34G5babMt89vw/bZLdg65/6d9f92HIimu1OYTWbNQCLMwvu2toCVr7XaqOb+cCuHVhuafbr6grX7N+D5d3tOAeauft+OZuTHADKdIGDWcucRbiwbjmZQyj+NPR66i3wP03qt3DiiTDbUrZf2o1mkpfVPqbmdj8vkEYs6ehItQcM00JIXwMYR+q2Nbdg6swlb6+dhc30TNk6fc2Dagfls3gKnqaPqufvn3icb0sc2qvmIP1odhciPCevb9KZsXT9Q2epBGAB2cLcP3Hnn6AmE77QtPb/MlDI9KHoLSofkyPbxpDFpycQuFogUXMyU9ZvUUCFyLAJJTqhn96Uu+d7LBaKktmSkpzhv+kQOIA1I6ub9+bytkVoABSBtrW+49zfar7VYs8GUswVg+H0GJxps+08jxdqmtbJkIch4bi2nie5/bLp6bADYAd4euuqqK44CvV6ayXp1TDqqku5Rpn1JEheNu0v91QUoqYNhoG9co3s5WCzIXbxorssO9hMTyStpf1+mTb2a/1TGV2IzB6C93b02XZu4dG0y8QTD1vnNNrXbdABqUr2tMxttKsdaTPSgSdaqjtRAD4PHeKYfuv6SgEKA5GJaE6PnyNwLv/qrswFgB3g7fHTlre6quGqKBbw63Pl4iRqU67dgw4z9Mp0aq4/eR3XVLdHg+1O2l4FvIwdH/SR/T0BqtynyRahVqQJMJ9OWSNjZ2nH/tmlnaxd3tpv3d2hnY8t9bRcbIO26jye7e+g3hZqQyhly72O1Mk6WqqGfEJINxhg5HFRNRQzW0+F+yI3h9n6IeaYRmUbTyC2edL+Hv4Dn6e25q8GQvts0CTnZhGRIPRbi35M6nnliEkrqCltwk8K0zWr0Ej/oW0agv0a9NDt/TEJfszyqSHlQD48nxpfta2tSu1B7Ni9/5tK18+dcCnfWpXIbm3D+7HkXjbbIgQn3XIrnopMD0AT3XJRqolYjNvOkgiF3qBsc4cqhNQ8I0ZnJ+gqNkjT9FilF+GVmUYlVZXHLb/gduo8Jk4tYk62OqqZ9/Hi9PfvMALADvL3tvvtW3N/jjY0o085pgS1bNxHrU8frGNQnlTLQ9edgIqNnbVGH2CtErJS4V9BTtGALGkjHRnKhVm1r2HAgOv30OpxzgDp35hycXT/XRqnpdEbzqa+fZrMZuloKLXmnI4MtiNwJRlo5tJo8LJosgTNe7tmCJbwmw7M8nN9FKLU4kf1q0tcIaT3FbwwXRwIVZJM6rA2e7vJWwRcf/YX/eG4A2AHeLr348JvQ0AsShXkySdfT6MQSFY9LPSQAoLO3KldxYFcNxTDA4gKHbmoXT5Y/df6k2kbzU9cwd1FobuuWXJjNHJA2NmD99Bn3bx3OnjnvgHTWRSZXE81nbVC35ODjvtk2urvmAIfiqO3/NULX1TFUiEmjPVKzwIcfWd+XRnQpntRFiRRrRApkDrfqWUJGYKBbg7V0PmeSMc0MAG5zT9qDcfUReB7fnhOAIdbf5k7NpWRNcW4LMQVWeU6LntVz6qGXohNtaQdYQnYry7JQE8m2RNMAAibTifs3hT1XGzX10Z77eGNzE86e3WiB5KISnT1zDs+ePQez6SyC0QcI0yav/jDH6NGOXoxCGoekEjsKb5HHcuL3iBOn2kyIOjXk71MpYnjsOD0FIXBJeqgcktuXYnxK3hKMnBaGjneowxAjuELOihY23dXjzgFgB44w8/WjtRVjJ3vFuS1OtlAanpFRpPSCnDB9fbt+dX3VP+eV9rwQfIN11GqADCO/ef4997q3tjdge2cHtrd33dttD6RzG3De1Ugb5zfgzPnzbd00cTVRZOdCPdSOWpjRiPSRb06iidWhsqSNaDPI0PCvTqQnPlbKLl2FBeTvCoABzGd9AghaoKPEH4Px2yK+UQyakEj7usYAZZSYiwmZOKbfihDrR+/9V//u+ACwA7y968SJl7vE58a2qcmn2ybNZIl0lNqzdXZ7KfUHQufrUPClL1U//kpr/Pg4NsN6/u10ugfrZz1ozjWAccA551K7za0t2Nzcgq0dB67m/e1t2tubuJrIb99oL+0eSOhqIrkmuLyYo0NyPPnj/POoixn5Ev+yENP76r6GwmEASIxmKfvTJna+pvJFlOHXwo+JydycBxOngaq9glig7qPQl0bjP4Ln+e3AAUYr9W3uz3hDY27TJ6Nd5slXWoQHsNjimu/vL81eU+feVgBt3XPu7Fk4d6YBkauHzpx10eicA882OOC0qV/zdmd310WvSayJeEdOc8JWD60FEQSFk8oWRwg6z4rpVmJdy/EhnGcTKcXm6BPEQMJposzJ62dQHwggGzrSJJERY88rXmsM+PtAS9zLXSJqDVKIpNTwKDF/DRFX5liNr5MpgtCnhhB+U9R0un9vANhBA8zWXzc+cuSiem9XNkhyxazEvbjQI7cLvDiYh5ikge2WFve3rV14mdUWtjbOw4argRqG7rwD0vr6ehONqCEh6nmNs/ncvV9jXc/dtxKyT34wq1xdXfWMoVc3xJwIZd9UiBxNpWJUTI19I0EXJaRI+7FJEryYkKGsiRHq2xhMG2XgcSRkRYh+iAkREqKY4dDEzAg1GSy/lhD+jFxD/G/XkxUURk/aHxq5WNOfjxk+tfIosPaJycz+5QCwg0wPH//S5e7X/2qAkpNQT12EZW1GoKf90B7ZdjSiYeea0Rc7m8Pu9g5snT8Hmw5I5xygNs86YLnoVLfLq/3KVNu+3zJ27cWWFH9ejSpscj4vU5ImeBu9SJx6/XkLl4VQKJGorEgOuAovKLUQxfuBTykp/swoDGAOuhDndNoXsZhsEQw4C6QmptvbEVXTPlyUfK1JKOw+tYL5FjgY3vrvNEJaolLaC+lhZMqoBViNH73sb61NBoAdZPSaVS9zz/A6ms8gMWrnC38ayfJpZm+x1eYyMHf1z87mDkxc2ra7uQmb62cdiDyQtl3NNJ/NiMLFn7Rql0h6ROhTMUMNC5hsQEltVVocGKTUjE9ytcCcUQxzYsAnqVk4bpjIUTgzFPjxydRbNzGtKUMX159ylGUGRiXNio6PAOUXFvI2polQ6roqRh+xB2yjndYUou+DxfvExjKY5GOpzarVkfvbT3//I2+9Yz4A7EDrL3jpeHX1WjuZdH0gCo3leAWvWkcTgm2X0m07IO04IG2fbZQN7uNzGzSbTDm1ifliNRqF1d7QNmSbtlJziFy0Eof46KfX57oWI5RqqfqULsY694ElShwtWxGGNxFDw/oi4qjTRKkGIJ6IC97SMQ8zscmEksZ5TypmO8L9MKXnoZUhGsOCktgCMCZZ44gxjSah7+MnI9sRZIZNhksc6Py3EAdTkxEabT5hZI9WFFe3gXNWTytr/gKG28EB7L3Hjq3uGfMGbMCSiFV571LMXPwZM14zt+MAtXHyFG0+9QzubmzR3sYmuqjl8RLylNF41CR52DRmm8e0VtZttN3aIJ4LcakJNBjrKjn8JFUfh4TQOYvSJVZuqf6T4cYTiTRC4g35HEqCSPsxMjsX+XDw4BMqNIQpwyEOFT8Rm8mqwGrBbJTpSPjIRHIERdTuX1CHZTQmBkIKonkGYIhOyIAykmkC11qNvtHXaxS/vxpXaOf1Jy3MTw/wOkCA7R6CK6Cef7OdTiFf7draHBuh2snVUOtffhROH38Edl3Umu3utd52kUxw0alNWRqVA884W5+eEQsYPAsh3LXP/ESKyoHHu6VQqNjbCzWxSIiyBekUm2+R7JeterEAUfy/kVJHelgSjBALnXUkRDXfgciyJmn+mVj7ycNhUE0mZZgHErLIM+71MagZ/hiJopDeoFAzoQUYajH/4zVkiE+auZVCgbtBA6j7YNiMp6CtP3bFkdefGeB1gACztr7amNHr7Xye+Dm010rPMsF0bw/OHH8Ynrr/Aai3dyiQVe3xbf5Q1pMTPgKF6MGbVNsTZqVIQopmnx40kLo2+XoppIdWBB7toTVRzYD+Ybg+6rTCRRlBEGs+3ZriNJF/Vt8jS6WyfEANSyZQap72dQipIUWbQW1aIgLd9qIiE8mYtAsiES9cujSRkSgmnygsJ8aoFKIYhdIvACz8KTwIJQOJV5Zm3q+mz37o9tvrAV4HWYOZ6s2jtVWgyW5Sd1UOXNOtLTj3yKPw9BcfgMn51l2KTGX8OfE9pQZcnPZFXw6eeheaRG3g8ld34TTIBympUdggljDGHWkpUXLGw6BvoOaTx9XPiGqsU9U2ItZQoYy7t0rKEvDln8Ngkh2CnPxwYWkT3RBMiGnCIMYwqWMQoc4RJaxG5o8jTqBNmKTgVFCYRWRwcQT0wGSFR7jkVGPTCDEfXBmNHxmgdYAAe8eJE2vGzL4jWmMDRrKNYP34CXjqC/fD1pNPhfGKipW4MUIF9jccen+yiAJgdHLFBCCkaV34ZACVHPBAV0QQE8SqPu5yI1ZLkKiLUJMLwAGUd4P4D7kZhCT6cuqwdoGSU0Kk5muV/9CwKJD4DhoJBimRRrVNaaU1jI1w6Qu0zYhWsgW6loKstvLRDLmVRhQ+H2Y7I4ERytDwG/NsY8xaiZqdWrW1d01W6uMDtA4QYNOVydExmbdQPY9NUpjt7MCpu+9xADsOtaux2lFyXxuoVC6kehakdI7hJNZrVih1wnhi42G3oTqSkw8N02WVAUEEUwPuMMlB4alNoOYtCAhDhIm9Wd1JQooDh75Oa7dQGSMyYuQeGGoaPZZmab8rdnlJ+PJwx0jlJZjj4itoDjVqkE1JPKdijKhgTCSawv0MCv4bijQyluHzbWT0ODaB+BBHXhPU/pxa+mvdfR+5/Y6tAVoHCLDVuXmTWa2Ogp237ODuuXPw6Cf+HDZPPdH+UavxOP6luGAPpb0nxBtyKmCFojFE6kEjKV2omULhhTbUGCSoEHpemfYa6b6xwDWSBiYSKWmtg8IytkR6ZPZiJPQFWXtNT2h2j3KWRSiYpb2yGMGY4o+1YWwI8zemKWeiaUSTNKWJHY+RFMERwZGSHugvEFzLGSUoMSz4RcZ1AKtnJF0i4i6o6+7t5wdYHTDAxiP67ua4Nk3ijaeehEf//BOwc/p0wwZqNQGq6kkf9IZ+jwxYewy8UBjjlReJuF0UihL/7ckKtoDWpOfGTyt5ZXNcrCxzIb4QBwmWBanI9NyXx1RQYvhwRKKUNUq0m0Qq4okQFAo/psf+4ZWOHqET/dK6CvRkZNA3xW5aZPlC+qcyU5Qo5sEBIrQ2ydP630GY71L386RI4CbbX/RoPEI7o4ctzu8aYHXAAHN/tW9twLVz5jQ89qlP0fbpZ1qqnUGEwpCxIJeU5Cf2sHzi5xXglCwWD5d41a0OgEJlhuQPn/XreZV9GZuZRYGu3yYfqkXgCERMdSDzFxTpf9Mqq0J/KVQuHigglJ/qXiM/EmZSJ10kpsARuQdF1QfHcJNFv9hs9qLmSDAyY2iM/wUZjAR/sFyTp6J2piABI0WypBX9GtTGrCGCcSO6fZATv/cP7jg5wOoAAfb9Tz3wdVDjtbOdbTj5mc+0ZIart7iMSJomQdkkWm5Rm5PnIwhUbcbGuYoh860x8KQFYrJQIqaJEAp4XUEluZ/xrdbA1PkUESE5+BrgYQQFAqOXpWgGE10hMB2nR1SA7wtplELDynk1OpKqOiCdUk7SURZy+L4VSq2FIm2Kbr0BbIbdBRoAmhBYA8nfAtHXYCEyCmhD2tgQVS49nLi7fXqA1AEDDOf0ne7YH37i8/fA2cceIwyRK2qO/B/bcPPXBLkPi98ISXbwIjKHSCLv8fURUVRyMDMYms9NRAJlfy1SVQple/g8K20taVFuxKWnP0gmkdl8kOJICSm6zz+liXqr0EiK9VhotUVPglCSsdaISXlPMgjHw2SHoShhRyU25KZ0GFNpQWJ8eI4UUjOWZnw/C2O/yyjtIKeFbdoXgrevwahNEY0f0ZT7eZYx/B2pGpnmd3/G/eI/MkDqgAHm0oxv2XzqydHTX/oSYFW12R5nLGFLQHv1J7+FowWTUeZsPFfkiQoKo7kUlYbG44HiyFTg9S0pb3sMQvmkf6zUFVHxwRwe95Q8lKWBBYTSMiOJGpzjxdlnkJPJygwjdKAex6c4dCVch/GA51MvU1qBSYijKYHEUOgAI50A7k/Fua5AcmAkKf1DVImaA7lbYXz1GJX07WNUCuSiQ2Q6P3jbNH8TePo3/tt/87kBUgcIsLcfu+f6ej598RP33tPufjKt2E2CE1tkhLeRBk/6V8oYKnISuqlruX/lH8eSKmNMtH6R/8doJN8iDHrEIHfcgqoDQrZJcYie7QxQPV5QfRgm3sGHDuikiPHCIsqpCFpDkjnH/M2AJi09wkj0hEJXhn1bFEf1FbiEITSKsMCgNY4kR0wTNcsY728S1UfoeQl5ApIiNpcU27TyPj7A6YABdtEVL3jjo5/65FW7p9f9TBCASsMSsapM98UBLCPluhVlkx92lOEsiHIksoGfTwgR8Oy+kYlJEza1Jfu62uSHEjYuanat764GikDU+igSd9klrWY89PQyD2HqWhN5fpliLhnm8EntxtU0HzOgQVIV8B44HGR1r3skq8iMZGyfx0ky8AX2kJSCg82B2kFMAzLGFjWKRl232v5a6Jk1alJXf314gNMBA2znzPo3bD/11GWtgqO9OhMmV3JgAoyynQS6FcWXeysG6aQWo8tIh4kzWZ4sRGERkp6ZiIE99RU1wKT3mAKP5DK7gnyNgGTokUAbd6oBx9Ao9m0voy73Ipg3PjUlo6h6BeKclo/g9JRFABQffBNUU2015MFi2OrQp9lVaKfFPldsdUj0illEW2+FYYFQSoaM3EQBMcTI2E7hNJ7zFDC2jdO9Tw1wOkCA/QzRkT/5nf/8qvneXpBpm1C1RFdz8n+VyHFHzwmtJCeMkl05zK2slJC9CtvDbwMLoHaLIMn8VSjwyZtKiBQjtJ3C06AYlnFoC48CTIhTELVadky0MXMMs1wGdaug/RExWp6SUmxIz8tgvMLEZnI81MieaDEdZJ2hibg2MdNMSAsf0MLnUhKDtFCE1RkNIA0rMTBST8bFcJ4H85EsEB86EgbplAk/L8En/5/vvWN9gNMBAuyuY5991fYzT798trvj0sOKV4T4iV2KDIJoWg3bthC3flFpI8ATF9q3wwev4Oqn7u9TTH9SGyaxYb0s8/H+axSXGERbQNTOE7qF58uuZDS0rV2MWtWuCPzA20SxEJgoNuL8DqKIOZHMB4xqCp9C5ADurQkFj2yX670KDEZWL/Ag4Ut6datWzhsR8mKs0WJvzIMz1GDeJyTUYsRES0wZjaeXmOpvrBbs3P7OQiOVAWB//dvp+7/4SlvPbqZ291dMnwywBV/MxAiV8UasO0yonsJ8Cmgzbb2boBmyhI4cOIqs2rVVoacVW2hBmUHeK4mY6WPnpjgMI2y7ng+NjR/VPgscuEiYYgroo2eW2oFeyRkVHhK5pAaLhZ8xkPjJh9orfJkiGxh9HFOCAskY6XWJnMkTElKHkU//TIxmXJOBQWXNhqE3xn4bsbeGQpK4t9VaPdDzvaz638Dtg0TV3rmzr212f1Wmgpj0o9fZtGrRoDgNEgIi1ecFlUhiPD2o6ye1CQKTVZRak2f0pdw/UGTvYvO3MspUM+Q97ekxotzS+VUsPjx7EFygAlCMkfU/7Uk0wT3GxEKI4mW+FeoZkU9FtQcGjhvD1xgNzfNUMYXGdn7OP0Vz11Z0S/x+FUxOA/LiS2lfQsgh249DOuct7b0passMem9IlOXl7n+ucGs4qio8T0gNof3ThqV7zdtq3Mqj7xlX4ycGKB1gBPvlD/7y1fPJ5PWNu1MkJCCqbKJvoGr4YsfbhY1qOHKxspVUTdbIkyyPqGBkFHnskj1vQhNIZ3nRZc3ExDFh9phC59YAyhWIuCJjwoJYrKiMbVjFHnoP0oKItZjRXrzEag1mII14VMlDsI9a7JCZ6Phk2OXXs3+K7WOhr1c/QZA4qnmw2CwmMRdlet9XsKFWC2koqdEW/3yN/pAmszs3Tm4M6vmDBNju+vaVdl6/BrTWHDMJu5baxhMXejfp7uPYaPIfWR6MJFR6Dm2uHu+tfJwBtOY3dpYl2zTeiw1Vr03NU0Z2UWTJHio26ctxy1Uisx475h25mKaS8ftMYummonGFiXVuyBrZzz/S7AFckT0M8I22axjqKK/aqKJ3pCc24ix1ZHP5fj5QRxBRTDENq0ciyeGvDSMX5mrEj3/o9jumA5QOEGCzevaS0ah6Ic2sqHeENwgzUzyXHGgCGb2gZPTfoyq2x1oPjRjFvAyK3ZQolQsKbccrhEzaaG6VIxCAgomuMXItSrOESlxMiqpnJRRGCYpqFrOVmpZeRqZRmMQWGYYdcRTAjNErYf2hNuTBwkSDR4jR/S1uBkffP5PYOgAAIABJREFUnXabrB/9NwFEYecEyvtqYNL/XUIJi4npTYh0hhX1LoWsKqTZ7NQIn5+7l58zgL3ygx9cMU8+/C2qpUR6HEUP2SNrdlOOXTJBwkhcxMSKKN0VEcw6GQgkKE5tTVEzj+IPytkianpE+sSqOFR2aCjyDp1gqmgplHvm8BM7v3GsW9GPzKmDEu3GeauYrjGxGZoboV8VABblULHc9CWfGjmJRqIBfGo4GuLTk4mTM3FAU8+KSdlILLlydx2vVlDvzf/CrFaPDzA6QIC94PTxIy4/+EawijFXKZ449qk9dMkMPudnCNpPQw1YCmKj71NkBtVaRt7LQ6kBvgElc2TuEBhwPKWfTo2IThETgwIly8j9LtQYCmhvwjgD5jtuIrtnv3qe29EyJhCQxUiEGFlBVPNcnOJJ/4oVHNoGIDalFdCQuHGcmIvy/YEV+Erd0T6hq7+AprO7fumN7x36XwcJsL2JubKq6ts8R96OO8SKiOJBYCUCp25q3BHiClYC5YuW3LjdpQ+80jRyHqgWlMgyWlWKhQqMMmmJfEfiHa+STVA9Ot5QQnqM33PizIKwCQmrdZGtzvz9jZAmyv9DvPbFHs2P23BE8xMtsSYTSVOyyJ20j6GJlL4QHMCW16wxVHUYcnqZTTyHfpqrvWbbu9vu3WF6+aABhhW9BZvOcrM5wQt4Qx/FSPVCnb2M4isYO9IgineizP46QJLYTQpy+PCkMsrqY34APahZQC7fF9L7KpAp7TCvalVUKErBkhp+mijIB+V1yERNWOonrYPQ8DUs/qV4+CGSCxFAvvsQR0z4rXQYQBrOBmQwUg9dGt6kwh2HeH8ZZQnXtpCOto85GrULCB+wNL9/gNABA8xdiL8dwgFoJUrttdKqHVOBcvLjJNHTPQYrHmMkRpWoJ9RuK/VZCnsXfM/Zi3lCg4y8WJfHTtJIRZJMUhwfEf8p8Mp4YNuZ1MODd7RG56nI67Ud2yC3pzAPFmuvNoJVIQKJbVQgW6SlgWG6OJCdcYsJp2VNvUUqyqgBad06M4G9xSjsR1lQHj5HwRecNLji5wOAuMZrFfq+r86TRs3rqUaIdg4P/tI3/ItjA4QOEGCv/ZmfOQJYvxVVGRUTPwSmAQPtEcDVXmlVP0jYwrAMpz1JJBQ8elMoPWtiYr/MqDoPqLNcGJXZhvi3tyiwyACUYhGyBjZ4Kg5kjx8h++HG+S2e5cLcQSr2k7w1brRjC1NZVVDUx8IoCCB9BCKZyQpsoInBUNVKxqTRJsyA6aUMoKKbr9WMSjP1aIvRKvlI6YfJmIrlVm2vfr43s+4Tdw/wOWCAHTkCbwRbXewZB4pa2lhGhR6XVSy4/wP66ZQArWjPRN2KR/IpQjWur+/F412WAgaVp7ywjaB6cdFC3uTrJyjqgygh+6Hj3EReuKx8M4yY7Cech5KFtdHCaFYzszyMEzzKNwMlNVQ6Q66PoiEN6nSQRSRAUVMo+kThRL09QJIK+ogpjWcw0TFKUk6q2tTBPm2g+swAnwMGmK3pO92FeEyaKwDvTS3WnMn+7VhRxZyOKUMCdq2Oug+uqWwyckKknAcD8JSfVLR5Qr1SHWVJnWYIY2gLTB+Jm3wgXXyaF9T0GlyxZa1qMFQvCUHLOBT9zmY8yieUZ0VRiXaVYDclHZh8oKSFFtXuqtyTSBRZSH5cFuCDamBHtjdEUiUSZg1ko/pqYFc/cXR1fQDYQQPMXdv+dpsz1PNQDgf2UCRRrHeFuOKkHfeIoyyJcJf00mEUoxk1gyXbHAgi0KTWCntNk81jeqkxpdwGW/KmERF51wiAek2YJL/BpyI3rDEqPQU126adozAZwTds/hnqodg8FmC0P5BayhCikgaXLx9DekeGg6mKdjxgKdExlpa6ljNGlPgm6xL6EfLmb4333vHqwVz0QAH2Tf/bT9/q3tygY4n2QGodaXwZHXdjCRhiSgY+hWT768TlV3basZkopMtRSZGM7JaDyt8jMBKUcJgUNqLoDrGktFb6YDEckYYpSd0mJ5V/AYrMTwJWOkAZGshhb7T2JIy1EsU1QlFfSKzgkLSQFPPHYycxK1UL85LHFFYym3qOUTLUykY/BgY1fiMQtnbinuNPB+gcdASzo7e4X/QLINBPGJO5KAn04yGgeAclhKc4mRJmI0y8UEYFFF84idNJ5iOi0Apin4m4GZB32Ei2UQptV4hKlgBlnSuFKMtSDk49SSwI40ohqd3EU0NZWaMUZbwC1uixe0nx0OiDD7kAN6Xepe6KtD4pJQeRSJ0oDGIS5t+LUWcIyUAmkyfie+jT5EZhTzXtjJD+eIDOQQPM4JtwNDrc2ANgFEZQKs8wUk2R7jLxBiD0kyvBAUo6r9r4s6GwYrdMOtGYEh6RrBT/Q1KWORSJeaNE/myxDZr1854e7jmjHsQrQwyCkR1gECzjIVipcT9LNZIx7dAGRUVMu4SMMNgBD8kqV6bghdAQHXDwOkRhC5GbxAHAcWCSSEctSKMl+/Dw5A3w8gcwYa9FHLB0X7jvJ1//w4M86iAB9vX/8d+9ELZntyaL39jYjGKDKRjJoN6KomwyfM1m07l/fqddwABGb0GJfd5oNtvGGWHYsaOij1pEPZ4pBEacFI4bFuLTGEw3s6sUUy8SJ5Oau8uyB0wKPZ4/i41dFvxrSRJKegeYqDM0Fa/qJZNEw6j0IBnBQ2JFB0ut1PNyhGKvYckLUAmImaqKhEtFfzTA5oABNt61r3V/gRdBokMK13wSGswA8P5WVFp1X5WRWqSnek3K+QYiQETvEFWK0e9QNjdolYfe/gXBmQpRQTQsJo7YNkbW9sWmQdQO6ukYJQFJTqei5FEpSxC097uUabGXJVZoMvGigMENcZXaKU4lDGKzVxfXbYhqxivOoyWWbKCBHaNmXAgh5jk8BwbAMko7wyE9PGiAuYz+tS6Lur61B4h2s5B2s/Sslv8TWxZDoNEQsPmEPsq4GGeeqqelDA25eR1JEiNj/kKWyGIdWfuqdnmBOLIhcLRUPTSCVE0CmC/UAy3wlZxLA8IoVYU0dqNbAfsQxlSQ1VUmo8r1krxYb+nHMCpyYUwBDdd3pNT0AVgsLJZ6L5Iwoc/eDoN7Qcrx8er43gE2BwiwN7zrXWPE+rXVyhrYxkGqvS5apd7gZcbEc4gumWuXwJF4pYNpljJY3dKKSkJK+HS27Iyuvd45h/SaMDRsoe1fSNwC69fMkqyjA5vHyzitjHrHc+xjEakOkeCNV/iYZLAy8uneziZQ4kJCRAGu97hop4xlOtkEyaIeI0Fdd6kdfIb3sYclDWEQuh2WJKXGUL0xg8o4GHRDOpoMx3SyLS3jcr32OZuKdLy6gvVk+ot3vPqfD/T8QQJs9XWveIl7cxvMayb0Ql/Ln8K2K1sTJhMrJlicgVo1GQR4cRa55RLkQGsq37IzlOgEVcSR+xrkZrWo7g2/FGVkSGhAgMMNa7GSI0C1AgllAkDZsIHW9rZq+iqsCFNDjDGqsAchJRS5QYIsqmQOu2r7SWjztS/RxOkXEsNRb2TTqB8ZgOxbqgK2QTY10JR/ssOPTUmbkmBthHYy//N6Qh8aIHPAADNVdYP7pb+yiT68tJtI7+YGdkH3hhaU7eymROsXBK6U1ThxQNM/i8HEH571hajuTulMCsQ95aCkHTK9SWoWK/Xk4FRXgU75cWQMRVpdqvSNqXXivhfrCDV4VBpmtJA39K6M2NOraCiuTiZVvWtlBhkZY4kriTQdr5fwKSs3IUOaj8erI6hn85Puvv/6J7/+hwdzm2eLl2f7De4cf121troSaip1VpFUTkeBnSMvAQoOTH69AJu+hM+li4fD1K5eLJeyehR7XpT4b+i6CcXXnSCPdKhFR5HFZ00/EyDK9jpYFkomCAZSHgbFA8Obf4adx+FnNCgUfDJC4tXqmLP6ynk3oeUVT6lrNZVGUnf3cvJTxxVigc4n/j7Zy0FtvdXsW27+2dn8flPRP7njNe//swEuBxzBvuXXfv5SOzVvbvqyRvHYPC5FIa1oOjDNfBhLh2SRHCow1dZyiklJlRPseKP3LrCUnae3CNMBL94hpqxq2KhDMSeIynOenaHiGI3SJwlLHzJVvZRBm42C8kWk0DcitXsL2/oqaR770RGOEs07FUct7R+vlfWKLFGD0/kqWKMjl8ifOg3t6JJTVQYaAW+T3Y4qP+cwn872aD57zIK5cwzw8//mlT/8wACV5wBgdlZd5v46b6baSutIAkw4DkHJ0a4uak9s6KUEC2iZ8ofGOMU2U12trY2KViQy4BggSEutZLkQu0nFsfuwEIJCqpjYWvNDcpTzFCWJEl6G8UUaDLJQTBbhcfwI1LYxMjAplmk8l0nRVt6ohp+Kaj7IEesKY+D0KSITJARGjadFmj+Otmo/DciA1ngeNoOSDbCrUdX6BtV7E4K6XnfZ/pMuF39iVsMz7uFOjdA8aMh84o7X/dB9A0SeQ4A5HLy6Wlu50s6mfsQpNp14/ETawPFqb9hoUw/dy748IBmlJ2JDG8UiiuxXaQNjKElaZtE7kUhAhMKVxH6YKvZCkaQWSnCKykOXUfub7F0OxGUc5+CRjsgcotDflCy703Ilg4lEiVXsKZ0eAGcoqbNM9NSQfpYX+rrXWZngoVH5CEWz+ZTq+ZN2Zh5xD3yynk4eG5nqUZc/PLUyhvU54RmajE7fcFl99n0ve99kgMVXAGAf+MAHzJ9V42+N5EZUv0fRajjhpNZ9QXdXN5t6iqyqMmENc0MU2nbduQytxBBptNGvrHWFFCsxjZQZfm4yK9s10qIR1eJiKJJWhUSSNPmc0u5qLSCwugKL2sGCLEoBJHV+MrxMj0iZBLffVyXL8ELUamteO3X/TlBND7vvenBOdMzW+FBV41MueG0eWjuyvbKzs3v/G2/Y/hDeXg/H/6sIYH92000rNN/7DiR9zuJUoycC1dYDkrJL8RAgSkMvDIbEZUNJc2O9hJRzLKiscVjxng4la2deGXDUKWDYQhFm0CimfaI5SUQmBJrgSHYcS1OW6yOCzCQ0t0CDbFgSY7pXNdbVJrjwmtaCtFlCjW3bA8iBB+buMzP3dtu98kfdHR90ke0YzO0xguo4Yv3o3uErJtXZ4/VNrpS64613zIcjfqGkiPPt69GMXsnSJ4lKmCzZkg4Ub1fInEij7k1pA0271SESEtrb1xtaULrxrmMMqj0NhYmPPVirKA/iNeTR4k15Xxnda1Db2ZU9W+6wxFbSUsZ1wJSr2Kvo716Z9l/VztTVYKezmXsdmw5TWw5oW+51b7i7P+l+iAcrwIfc9z5C8+kDk/UbT37o9iECfW0BrBp/Z5iCSIJCk8wYLoukdgA1FqWdENu0LfxHRkN4Isqvroydz2CVzf22IC0i0YMAifKeGQzQvgXiIaq88NG/hswWOOZ9IlNWy7WyqBSkTt0+lG4Wm7DipzLAyxjchWS+N4PpZGpXVkcPjFdWHnXQOut+h6dcGveYA9VjVVWdNLB78kNv/R+fHI7o8wRg7tz/HcPKi7DIHDSlTSDG0N4fsQWP3j+smsShaPBDFU1dh16h4AU7xHkmyAoiSOa9WkgZUf0GhYJlJp2b0yDmHahDq1bMs36KeEWR5Lmd9C6mgmoi2YThrnbrSFBVzHb2YOL+Tbfcv+09mMV/DmDzyezEC66/9Ie/651/72M/e83f2R6O4tfmDffX//q1S42d3utOz/XNFTgSfcqomhuWkJrkghGPF+Kahxpi3msEm4DVzjS7/9pWYx/+5420W6zZjgl3JC+kgaxmwMCvn5U0k1fKqu8nIUHF0DSwNPp+oMgFH7kCoNS2kboB0eau+7cNk/O7MNvccaDagfl0DvXUxaeZA9Sshnoyc+WUe+Wjyn1T/evzc+N/Ap/58MZwDJ/nEYzs9E0OXJeYlMeTbidFBQWvRAguSqEKUo7RwBv1QjQyYW8lcQsZZAYZeW8yiGI/sRZIIlE0OsNEDqXXQYBWV3EqCgC55VoYYPbPYn23bb47genGFszOb7u3DZi2YOLARA48TW/Qukjc9gib5RXWSp5sxLOjahdvVc1ru28A1wAwfydjvs29OaoPtJxppSQP20UkeeNVy3LfoPa2QawuLSvkkTINHiqmcqAs3IJVGyhQKecPjlQmWR3EtVYTUVpwzOv2fWtrB6Spi0Lb/t/GjvvnAWXnM3kCSpSN/Lple0KV9hB0HTifn3Vfv2c4fgPA4in9erMyRppNeVm34thTAawonHi3XLqXFVlmIbu54uP4IGhbL8XoQZoo5sVSLellSQqIimngacImjXPp2tylavV02r5fT13atjd1tZFL5bZderflUjuX1s3cW5rNJfQpGwDZKoHJXFiaaav5MCI9WR1y5hbdjyCZwdd9ABjAW/7Df3iNO/XXYRxF8dKnEK9ssqmHR3xNdFRD7XodmEH/PRFDyjw76MqpXcTdgs4ke5jVs5hEvuB1Qf4rDYimriaa7zRkwsSBaAKzXf9vnvzba0EGoK1wvd4QmyXuhSo12hwISZlcOCBdtMQbM9NtL/6OD01+93cfHo7fADCXHsIb3Ym4DiJ1bTy4jGLbUCkcdLQyoeNqVKSyinDghZPtfVrDmTCeSYFMDAS+QT2F3N6/IQz2XOSZNNFnx/1r3+558ExnLXiafw3BUMeIBFJntWTFyngJBZSCJt2+BGlkCgSIAhQWHs5lxXbmfoOfG47eALBYw3zdeHXtkJ1OIKHc40o73VVGLR/UK7LSaJA0kjkcUHAEDpEiaCyaiLTnUre9hqFz6dtuQy649+dNqhfqJnJ1k6+hamDzGR5UdtAdj58dsYplntUApnUXJvJ9yGMty7OiE52/yJx1Mfzjw9EbAAbf/Mu/fI1L116ViApZlSRRCyCZO1LcPWdKXD9V4M9lPZ97UsGBoqYapq4e2tvagu2NTdh1ANrd3GrfNqkdhYnn9nDbyDRC0jhuYVmNUk7BgAaDmNyI+426kqT7wIR00awl67rYZjUtvCBaEac2WglTSevz1//+J+G3h8P3vAfY+MiRlxqytzYsW9x5BzIpD4nWMABHTyt7NUPVLuFuqO7d3R2YuHRud2cHts6dg60z52Hr/AbsOCBNG38PSk85YpfI4Bl4gLzm6QSiZLs5pHVcUtOJlZsoQEDtcRYNPZH6SGSMsamAbLgDuvYkYTvcfz8Jd4RQPdye3wAz1r7crK1cS/OZOxhVVPWlVL1iy6Tn1Sxpq9rP7W1tw/n1ddhYPwPn3L+N02dgx0WppmfUzFXw4nAZGebIl0SfEluHaitlypin0arA8Om7kwKVTKlA4gEiRZwKkqgHOFltkjCfssGpfTt3b/5wOHYDwBr1xpqrXV5XjcZQ1/MQqUxSpujd3iZEgTZiuS+cfuJJOH3yFJx75hnYOHMWdrd3GITNQsxm6K8cdvRMMqrF5t17ErB8RNV0XDsmpSSkemPQSSKp3RDSoMa8GlPPS6SWyQgYEfSCzXDlMTxZ7T7cNXv2o8OxGwAGa2trV7so82ZyNVLwoADhzUjoeTFvatPApx/7Mpz80jE4f/asSwd32hqrnaYdj5nQIO0zT2ktR3moyAo7ZZ7dLaUoIRfS8gqLHGF81LTFJVv7KExJk9rjTKidr0iCmZ+RS160Nk1sHu6unT/4g0HAOwAMoMb51ZWpvq5h6LRxEs8zxvWtzbFzEW791JNw/POfdxFrXWjxJrKNRnLdV99Leaqp6G8BBqVAA8hc3SSr1JkkJixoluZFaZd4FzB4ot0wJ37h897SMfTfRCpM0aRY6ivMXm76QtHaP4W0bz7cnq8AQ1u9qVpbBZpOuvqodsh41CDL1VTr8Mi998JTX/5yq8Fra7dK7V0lCQkyOWKgWFXlWCq3k7rfKB9TFu6olOZp9kSNkwEvLldx0Tti8COSboqpBdLJ6iIxEQ82qhi91+jDw5EbAAbf81u/dXi2tfVtUNskfYvHvRqPYHdjE049dAweuf+LLQPYEhbB4x1UH4wp/pwWLyOqfH3HDqIIdCBMAiKbj4oFYnh6BQTZAa02a4KBzMI3IBb1Sgm+RiSvkLgxRmrxHsjuPYJHKjh0YjhyA8BgZ2vrotWqerPf3GP46ES/ifVTp+D4PffA+uOPt6BqSIvoFM8XdBM+NhExYUiKvez5CKtRfyJCRUGw+VkyzsUw4a2Xxqh8j52EIY5j+rWvEdGBmkE1buY1YD5xNMr/LSdKkt18OTETtSlK+0/RbN4gzeo7txAG2+kBYACr4/FtVVVd1u7+0ovlyMLJYw/AQ3ffDXvb26G+UvyCOPvydR2DbVNiGBN34YknIsWxRll/mc5wSZTIVh0rCw29JdpDy8S4U0g+CZMCTq8KTLvTKl9NAhumC9lRJ4psANLexzQtjvpO+PVf3x2O3AAwqOv677bTyxyNHEjqGh665y549P4vtCSGj1qYXNoZEKQv89jN/ExOSqTWvSpaxQUrkPqMJmsmdHUozHuISto8hGTFc0ZAmMBNouquyfqkSHbIHknRUWpIRqqDEvvGhl2dnzcreP9w3AaAwSvf9rYVdy3/rqh+b5yOZtMJPPCZT7ma6yF/kJomMmVaQs2V61hU6PcqGh0LpIWsaQ71VcvidVUb6SCWim2USjdUkEGUlbIq8BCvvCXlax8CKc9mpySkwZRAUVQHSmSk1uGmps+6D08Nx20AGKx8499+kzGjK1sjF5cCTnd34Euf/gQ8eeLhqBZXXtmgbLF1NIrX+A4RSJgcfqJkdTMU4YZUCjr8VQTZrUzZUi9IO79FZIOeZ9PCrzix1pEXyta95JXonoJ06hp7X2vv3vm/f2Pofw0AA7jokou+1x2LtWYmau4i1/G//Bw89ciJ0GxGHiSEZNqSZPkc2zgpZ0JZbg6U1TEKa9ysTaVRxMvG+UODoFY2+H4cxYXopBax6CV9fn1PlMQHVaV+TtYWgtoj7f23CRVDiiwCTkDKbo5RoOhv3tDnHhj6XwPAmnOyemj1LaOVVawduB69/154/KFjbJ7OMcCgUH8QTy4gLyLHcHh1Mzd5P+wTg5Sg0GmchAbD1mwqYARPgsiVB3C1z8o+3UydS+Q08SG5zmpVGiZacps0s6WwRyzznQsTpYV5L9Sz1m16SJYedHf+0nDUBoDBy3/q3962snromuZMPv3YCXjkC/e2w4/GGE2/qWleSJchg6wGw9TluisgIpR1DyHCce9IGrTRPhRTFW9HMREQzg1uYSQwrdMYdEpHyKlkiG3i660eWoPIS+SVHUCn4vP/bYggqo/twHggOAaAAVx2+ZVvdofkiq0z63Dsc3/RsIltA7nDLmhAYco3cA2SmCFSmvD55SQZ+qT+IWWyKKfbBMwZbfxBPS8OlVZRG5/KzvSkjgp1FRGbC/M2Z+Res6I4AfSGCNIMplh4BEUW3Q//138afA8HgAEcWj3yt0w1Xn3gs5+Cyd5ukDx1wAMZe0fKXzonKYKKAglR+0CZRM5OUj9pQUaH7giCDKbgcwkvRocpFVZCapsPRmbmBlENj6BA0+w3k3a2FutHYiWldTCxkfP+I2cRq08Px2wAGLzwR//ZtYeOXHTz4w89AGeefDwuz0uCTkFm5K/xeqw+aPEo7mlAyKXxPBEclzQgM3udsoZMul6WD7+RTSqaJCS1oYH3h2VxNrPWkC0s2R1jIsivC3P6EnT0Flu6sPWuqfmemtv5Z4ZjNgAMXv/ab3zF+TNPv/jLD9znj0pWd6nqPUQak9RNKrRRul41EndAKiNsd14RiEMwAZaEuSh9qcQSUR5M9kBg/v0qbEJquKZDD5PxyV2VWIriYtxk3kyWW8h2d63maH5/8/lDe//nf/7ycMwGgMF47cgtjz7wxWu2NzaCbRmprZDCaVBw66WwoFtGUeSQUzJxrwgMrk24ViLhF1J9n2SfjLM8xBEjzHPjTFjEmsgIPc8zXXEKjddTqo2zyWOjEmtk62ojBjWxSapr0Uqkyc5gjB8bjtgAsPb2xIkvvez8uXVFiUd2GjFVPynqj1M+Pf+hdLTchsZ0lSuqNnAEpuYJEXX4Akr6vIlJBiiKRKu1MFXXiyJD24Jy7eilW8Qpr37x8ZVgx9tQpPnyigLniQ37ulvj7E+HIzYADN52551Xf/K3f/NVO+fPNqP8uRGGQkqBLVRKB0ZYmoPpCJimaxJ5kggRHYLD6sgYv0ABqMCnJN+saQ9ic/gkUKmZGtlWlFhu6MYWdPwOkXTtmAt/K4Kntn71/x38DweAAXzyNz94w/bm1m0hAWRVH+XEgLADMd0K9qPpWUcwKTIjERcDHwlPwtP02soTw/Zj4AIoTQuziJcBDAD0Fw1LNLjOwsx72+RApTwvxMSyWy44Sj+s9fPt3rOPwaDeGADW/Gfr/ObLbEWXs5k8BOuMoA4yUlcFvQa2u79ijcO8HG8AQgyr8lolRNCpM4vhd52DViW2045skw3J+L90sqT+06ZSkK2JVUkq7zdHT7RgJGVQfAMwdWELyim+FPAQZchsww8Udjlj3DAdM2nuhI3Gvz8cr+E2uv77vu/QeZq/BaBqxlL4bGIUPBXUGO2avLAdC3NBb5zKIqHMFQlPGMWKRjbOJnNe3REYdmwSwwwWEkdNISqbDLVWKRgW8KYkraLXQVDTo4iKz4w7mZL5Ge7EhYrRKIlUIFF2VlZng3vvcIPRmSN4iTHwVgM8giGzJhlxHv0mjD+7+dAhs3SsPu8u8cJkS4nsvMNcKo8A2g2ANwMploH1IcrgidsGweEp7p7Vdo6geY7EKzFWgyapH5O0EqU8Q914CPimdnM52U+s1hvnh+M13EajqroeqvEtzRJuQJMWIkaUCz5tJGKtIcjmEFTKej1S7INBUrd0luaFbya9yznhIAruhCgTxbm7mwyEGaNco9giQC4LIsmQ16L9blTFCBpCuiXmbRE0w4g4GjW24Hee/LkP7cHP43DChhqs+gbH1DDpAAAOoElEQVS/RyvKl0hFMRkqDmuPowCPPaKVYk/rnLi7bJT9tLJIi5omVHMeJLiSGSvxy0FxW2tZP2XM4cNbujxaJ3/sehOyRS17NyjDNWE/pww3c+5KyRVCii8RC7P9duu49VGVjQ635zPAsDKvjpf+4CEoQ5SQyzJ4S2tsE6MavGQqLTWoZzcYQWjY5yXmN543QUw3KgDP8CevKfXKMOpuql9FCFlzTNGBkKmcDOb9AwjZsLrKqNgsFlOp5aKpmk0vX3LPNag3hlsAmDEv95PKPnKh4TkqGdLNerx5ukW6WuuppzSNLualCR9e1ErxECcmAQTY31c3D9RpNyVHAuxMIetJ/0S3TB1XeyRKXz570nOgG4/ATunPV2nj9HC0hptPERFuaN+rkHV9osvroANQD3vEwyw6vdz+MLJ4SRNZS6f0fKMWMKY7tmIwVWVaxynKQHCKE0FyaCIoVymSYpESbS+AzJN1zXn9mEyiGEZNWQbQtUZA9aef+tlhPGW4cQTDF0YzQHV6CQtXe4AkAYy1CQrxEJeksPM8aikUqMWyTD6owcVQZ2lA+B5cggNV2yBrPBR+5eWoHkGighcjgnQJBMQ+IMULABdybCAS3zN6PWzzFQcuO5+fhmp8bDhWw02niEeVt6C+bicehImUXeVmlJQ4eUoWiYtsB2uMQcBencoEOJ1/ThT7lKSgeuxEv6Z8Pq2V+qodXlyiRR2JbsiBarZn5lSsrSI1lh2/bkYGaG7vm1t4aDhWw01SxKoaF+DTWVCSmXfGTEu3w9I6S38+mXpWm+46LEHeqhJJe16bJQaHpY0m0pxukkcMJsNUWuiXvnLQxjxpnij5YMhcjfxMbVsA7z/zkz//+HCshpuKYDBp1oGr9ahcaUk9ozJI5UPRnHErS0jaA23bMRZ3oA1v/uEGWTjfYdIyLfhIzV7qzlmjx5J9lhQ7vmRQhIAqERUlf8hfw0pAMiAfcCqMWBrVpkBHkpDzBCIY1uLh8AzNc83qiQPZ3cORGm4ZyWHOuvNyNcajpS7aBlFPxkM2nhw0fibhDkzM6EIX1iv3kBf4NU9hglYqBS8vXwWT0+hsFuoHPeOYWXxUv2ModuQUSxnwKMrEJAhrp6tO9mukOwBqH3OiXmHhc1Uh1POT7qO/HI7UcEsAZoxZd1feq1kDBcmSE4w9IuKSKMr4os4pUiKYVVnML6IsMQpcHze0w/dFyXCqJJFpMq0F5D1cuVUweAtsReqTmq8OiW/uR0qAxSWz3ldHJ66QVnyoV0ZX7sJhzckn7zw6RLDhlkWwkXnERZtXkbWkbcjSFhHGvlLUw0o94lEjs1KRb2O/GEOY7smLmR8mg1YGhVDJNu+FZxdzAKPmHWOMjVMqKtxgJn0sWG8LWrSZaCInUevBZH9syGVDOWnrJoDeBR+5Yz4cqeGW1WDVF7HC/watVyyZMJ3R1iCYe1V7b081a5hsYFCDK+KwhnqLCcR2LWAuFImuA7Go4qjl9xynU83ExqChPUU85R/t3kikwAqLqXW9dvqIkZovEIYNIJOVskY5hBi+dGy46nOwBxhuXYBVI3M3VRXQvA4kQ3S7lZldjiipdS0prj6ZbiEJJigmUpB4bCvPQgl9qBBHcVmrQWmYuf/Z5pNWRk9I2bd5b16farqInKi8SAmuuN3Gy8vYPtuPZ9rwSHHHF0nzOtc+NptnLG3AdADYcCuliKvmczCz1lTaRippc6nFXUjqk2oIBZMZ4pDGoRHDJcw2k+utkbqKUv0zQlEeKp6+jRoVo0LUghgd1oKqwshovx+PlHEtnv7kBh1JHUm87xXi5CiqNRdxKlR78hu879QdPzfIo4ZbF2AEq+ummv2luxK/ob3qA2biBgDQw/YAucwXADt0ASaLGpjRxqwVJhbwmYqj5ODGgsmkUZY8f4f24Kw0GpBqDxBgiylUFE3S5WZGPpIyJB1yYNc2oj8cjtJwKwLsusvXzz2xfsmf4Hj8BpjO4nIGkCF9SIhB7LzD51Gr4ZnsI62XAuVYE90+NU60kxql5lEBib1WHICk9n5lq7uU6IQNEdSIl1aFJXyHng0Vg5uMKqH5CPHO4SgNt9LNfO7dvzpDqD6C1jaL9dCMXG43Mm2K1S42bwSslaHGRruRA0HzueY+xvjF5/6fn+Q1xjsCN+mZe78lBIxfgdxGENOWcc3Qpi/2jN/rgPHzXtnhSzf1tcCUUM/3+M83RWP8fPPaTHge+Rj5X6Qs/ZAbqceD8NzxdSK/VpTHC3Iq8ovf8ZHLLzn9heEoDbciwPx/Vz/vDuFHzNpKAFQVwRXemmbVpQNMRcZ/XYPLL4hovu7ujhWCAlYEC0WAtfcxodtcCQCh4rf+fgqU7efCY/Pnmseo+GukgYwJsE3yeGjU97Q/V+H5mvfj61GvKYKr+Zqp2vWfDRv0x597168M9Pxw6yE53O3xH7vj5HU//6//wKU639JEr5x4ADUepVxFZdw5bjkOmZxRJm3J1C+kWVuUJXXm8qHjopvMnGknb5JKKBmTkdfEa9i1sSFlPyRveMDuFs3kQ1Q7lKrGHsDOPzxMLw+3hQBrbhVVf+DOzTtwZeXWZuF5wXATpAZJVyioLUPYdyAB0plGSJkMUkQ+aeoC1a6SrORK2UtK6idUvsOUcqDxsRM1MkK2e1MhLPPo8f83jX3cvD5fjUf3DMdouC1OEd3tsR++4y6XAv2uV1UYVlYEG0SQf17b2qaGzcf+LUot5PtM6cfqsar4dSCubcLnW7LSgH48/33GdF+HMenrM36hH/r0Lvh5+FQP5X31+ozUXBitEFB+pkqeC+QtYTQnaRbBV/BxMx6fG47RcFsawVq0jekXqKbvhnH1cnd1Fso7sz2LZJ64u4lbQGNIqqyq2dNXT3SlEpGEdWeikfIhF618105QTPeRbHpgpS973YfeNWkb4oyRRFl4xLFalk5LDht+tsYegOo/e+TdPzbYsw235RGsuT387jseQ+NAZmGmmD4fBXwUCcwgFMgD48XyTWRpSY0QdUwgE6KsqI2OkeXT7yuWjt8Pi9f5fia8HgP6vuE1UMtwxteB+rGMLwyrhFWUx8ZIwkDy2jgihqioCBmA6XTmPvjscISG274B1tze8IL7/nd3vn7TrIz94Yyg8G+9CTXGA2pCKsjpFgb7bR9UTEjzTGQSW947pFyG7QVApXpx1IXTM8O0PobXEMAbAF++b3jtxj9PCxb+nhCsAjDDW/+zmEj5h+fi19P+nMaDjszqCuB49OFVM79vOELDbdGt6Ix5y//xUy+pLf2eixS3Qm27ZX/CLGZTyun9iO2AdfLXmRjWj5mRInE8mngEReb02051XAQY1/llm/RA7X0QCgP///auJkSOIgrXq+rt0WFViAEVAiJKAlEQycVjIIeAePOgIC6i+INIouIPi0hYRRKioot6VdSDuNGrP+DVHDyag8RNTCaYnWUlmWU3xp7p6Xq+6q6qftU9u6CJIUo9GLZ6u356Zt43772q9zP5o2g/fuuWycClMUcNT596avajyEKR/pYEM7T4+OyvckrsI6Zaq4z58hzMnneZX3x3EG2lW/X/SsJJKzGqV+UqpUrpYNLfV6ogG+dUskrVc2PdRoN0Z1mlU60ZL5Vbw/RXpSSV5lop6iZLddQfghtV0V/b5Krsvl3TPmvZ16qwTvW1B+v8WVNzVgjfqyz7MrJPpH8kwbwk+/jQE8RV7xFjdXVRsEF8M6ApyXi9ZCdpkEszH53ckBTeh9htlLgC6SIsncSlH19PbCCCGuKoVdW9MT+y57CP7bomZdTBEmD+0OJjr0bv+UiXBjBD2z85/AIZH2/QL3tXuPMxP7KhbdV8zyocb7KqVwSxTuCJwXGTjT+p5wVXToh5GDqfXdFMgeWunIvwRlAM0M5Pm22Vo9IMK8+9/tBSvHJy5uUPI+tEuiwAK0H26VvPE4u9SWrYtboYY5WYfTMTyiEMmd0UpOAQDecKEYZBM7uOJfFt229+ehEU2GtCLBSUE6Sa9G7xICZkJjY5Dwu9jmP92olHX5yPbBPpkmywJv0y85KpE/IsNVdkmkK4bd5+GZtIVvZUadfI2oZB1sf1C7fgfVtttA42rk0/t54/MgB2LcP5gc0D9bGC2SVUEK5BY6/pGNj2hNb7Tpxafz+yTKTLLsEc7fj83d3EgW/DVLIL8/EEM6ctyRrRKnZR5JmaWvoli0ljyZ+COQWvqSS401Zdf4jperjZWw0ibPynUibQ0SZE7jvM8cDiI8/9GH0OI/2rADN0x2fz25JUvE7Nh+VUkqLZxkdv1zTDHicXB8OJ9liddte5T7gKRc1KDM11hJi4wd96h8yYEy5cxdlmtp8uCpPacUTNY0WBB0fHB9/05uayyCqRrgjAHHvuXJh/AKWaJfPlLpWoVJNE86nY2M4C1tsQLE8vd55HVqokhILb0GgabuEWIngpZvdHWtGW3usE6rQiYpSbzBsZoL5IaL5IdzO6XgaJR8W4+Prnr47+II4cKSKLRLryALO084t3tugknYFCPCiT5B5Ik47OcyFKIVDnQfMR+XWWG7YbEhR74LLJTxGk7eZJbgJrsgJR6eVubTkTFaCHo5z6D2je8wTB8zR6lbqsgMazgGqpUEWPbLSzakr2jt3/zCCyRKSrBmAeaAuHb0bo3kfNPfTaq7qdG3FMIBuTVCvzfPisUROC8WswASv5jC5lGkB9r3aJ4u5bguxBJGAbr/Y+9e5rEEt0d1kL6NPtFUL8OSHVcgG4cltPn/t2//5h/Ooj/WcA5mjXwqEbMn3ddiH13WOAPcT694JSt5YeGQZnpRpoNUbcYL8AmkWXpY8IIxCNaOwZap8hyJ2WgKcJRD1QsAQa1mCo1zupWh1Pd9d+2jsTa3RF+n8BLJRqH0wTh0+nWt8kE7hTIuwgVN1OC24jcNyCgFtJTbueVLnE2lMFgS+TpMJRe0DSqU9/f6P+pMLByRHmx0F2focLfw5lisPB6lrWf1JkAuZ0/BojXa30F4tsz2ZVrf+NAAAAAElFTkSuQmCC;" parent="GuzJ8BqgIlNCJu6hI-l5-1007" vertex="1">
          <mxGeometry x="10" y="10.003846153846153" width="30" height="30" as="geometry" />
        </mxCell>
        <mxCell id="GuzJ8BqgIlNCJu6hI-l5-1017" value="&lt;font color=&quot;#e6e6e6&quot;&gt;&lt;span style=&quot;font-size: 13px; text-wrap: wrap; background-color: rgb(23, 23, 23);&quot;&gt;Medallion Architecture&lt;/span&gt;&lt;/font&gt;" style="rounded=1;absoluteArcSize=1;arcSize=2;html=1;strokeColor=#4284F3;gradientColor=none;shadow=0;dashed=1;fontSize=12;fontColor=#9E9E9E;align=left;verticalAlign=top;spacing=10;spacingTop=-4;fillColor=none;dashPattern=1 2;strokeWidth=2;" parent="GuzJ8BqgIlNCJu6hI-l5-1007" vertex="1">
          <mxGeometry x="24.75" y="420.0038461538462" width="380" height="429.03846153846155" as="geometry" />
        </mxCell>
        <mxCell id="HO1UKDrAtHTBFOIxDmU5-1" value="" style="edgeStyle=orthogonalEdgeStyle;rounded=0;orthogonalLoop=1;jettySize=auto;html=1;" parent="GuzJ8BqgIlNCJu6hI-l5-1007" source="GuzJ8BqgIlNCJu6hI-l5-1139" target="GuzJ8BqgIlNCJu6hI-l5-1137" edge="1">
          <mxGeometry relative="1" as="geometry" />
        </mxCell>
        <mxCell id="HO1UKDrAtHTBFOIxDmU5-2" value="" style="edgeStyle=orthogonalEdgeStyle;rounded=0;orthogonalLoop=1;jettySize=auto;html=1;" parent="GuzJ8BqgIlNCJu6hI-l5-1007" source="GuzJ8BqgIlNCJu6hI-l5-1139" target="GuzJ8BqgIlNCJu6hI-l5-1137" edge="1">
          <mxGeometry relative="1" as="geometry" />
        </mxCell>
        <mxCell id="HO1UKDrAtHTBFOIxDmU5-3" value="" style="edgeStyle=orthogonalEdgeStyle;rounded=0;orthogonalLoop=1;jettySize=auto;html=1;" parent="GuzJ8BqgIlNCJu6hI-l5-1007" source="GuzJ8BqgIlNCJu6hI-l5-1139" target="GuzJ8BqgIlNCJu6hI-l5-1137" edge="1">
          <mxGeometry relative="1" as="geometry" />
        </mxCell>
        <mxCell id="GuzJ8BqgIlNCJu6hI-l5-1139" value="" style="strokeColor=#dddddd;shadow=1;strokeWidth=1;rounded=1;absoluteArcSize=1;arcSize=2;" parent="GuzJ8BqgIlNCJu6hI-l5-1007" vertex="1">
          <mxGeometry x="24.75" y="480" width="158.75" height="330" as="geometry" />
        </mxCell>
        <mxCell id="GuzJ8BqgIlNCJu6hI-l5-1140" value="&lt;font color=&quot;#000000&quot;&gt;BRONZE LAYER&lt;/font&gt;" style="editableCssRules=.*;html=1;fontColor=#999999;shape=image;verticalLabelPosition=middle;verticalAlign=middle;labelPosition=right;align=left;spacingLeft=20;part=1;points=[];imageAspect=0;image=data:image/svg+xml,PHN2ZyB4bWxucz0iaHR0cDovL3d3dy53My5vcmcvMjAwMC9zdmciIHhtbG5zOnY9Imh0dHBzOi8vdmVjdGEuaW8vbmFubyIgd2lkdGg9IjE0LjUxOTk5OTUwNDA4OTM1NSIgaGVpZ2h0PSIyMCIgdmlld0JveD0iMCAwIDE0LjUxOTk5OTUwNDA4OTM1NSAyMCI+JiN4YTsJPHN0eWxlIHR5cGU9InRleHQvY3NzIj4mI3hhOwkuc3Qwe2ZpbGwtcnVsZTpldmVub2RkfSYjeGE7CS5zdDF7ZmlsbDojNjY5ZGY2O30mI3hhOwkuc3Qye2ZpbGw6I2FlY2JmYTt9JiN4YTsJLnN0M3tmaWxsOiM0Mjg1ZjQ7fSYjeGE7CTwvc3R5bGU+JiN4YTsJPGcgY2xhc3M9InN0MCI+JiN4YTsJCTxwYXRoIGNsYXNzPSJzdDEiIGQ9Ik03LjM3IDIuMDNsLTEuNzIuOTYgMS41MiAxLjUtLjAyIDEuNzMgMS4wMi4wMS4wMi0xLjczIDQuMjQgMi41Ni0uMDEgMS4wNyAxLjc3LjAzVjYuMTFMOS4wNSAzLjA0bC0uMjctLjk0eiIvPiYjeGE7CQk8cGF0aCBjbGFzcz0ic3QyIiBkPSJNNy4zNiAyLjAzbC0xLjQyLjM1LS4yOS42MUwuMzkgNS45Mi4zNiA3Ljk3IDIuMTQgOGwuMDItMS4wNyA0LjMxLTIuNDUtLjAyIDEuNzMuODYuMDEuMDYtNC4xOXoiLz4mI3hhOwkJPGcgY2xhc3M9InN0MSI+JiN4YTsJCQk8cGF0aCBkPSJNNy4zNiAyLjAzTDMuOTUgMCAyLjIxLjk1bDMuNDQgMi4wNCAxLjcyLS45NnptLjcxIDExLjc2bC0xLjcyLS4wMi0uMDIgMS43Mi44MiAyLjQ4IDEuNDItLjEyLjI5LS44NSA1LjI3LTIuOTMuMDMtMi4wOS0xLjc5LS4wMi0uMDIgMS4xLTQuMyAyLjQ1eiIvPiYjeGE7CQkJPHBhdGggZD0iTTcuMTUgMTcuOTdsLTMuNDYgMS45NGgtLjA1bC0xLjY2LS45OSAzLjQ5LTEuOTYgMS42OCAxLjAxeiIvPiYjeGE7CQk8L2c+JiN4YTsJCTxwYXRoIGNsYXNzPSJzdDMiIGQ9Ik0xMC44OC4wOWgtLjA1TDcuMzcgMi4wM2wxLjY4IDEuMDEgMy40OS0xLjk2ek0xMC42MiAyMGgtLjA1bC0zLjQyLTIuMDNoMCAwIDBsMS43Mi0uOTYgMy40NCAyLjA0eiIvPiYjeGE7CQk8cGF0aCBjbGFzcz0ic3QyIiBkPSJNLjMzIDEzLjg5di0yaDEuNzZsLS4wMSAxLjA0IDQuMjUgMi41Ni4wMi0xLjcyLjg2LjAxLS4wNiA0LjE4LTEuNjgtMXoiLz4mI3hhOwk8L2c+JiN4YTsJPGNpcmNsZSBjbGFzcz0ic3QyIiBjeD0iMTMuMzgiIGN5PSIxMC4wNCIgcj0iMS4xNCIvPiYjeGE7CTxjaXJjbGUgY2xhc3M9InN0MiIgY3g9IjEuMTQiIGN5PSI5Ljg4IiByPSIxLjE0Ii8+JiN4YTsJPGNpcmNsZSBjbGFzcz0ic3QyIiBjeD0iNy4zMiIgY3k9IjcuOTkiIHI9IjEuMTQiLz4mI3hhOwk8Y2lyY2xlIGNsYXNzPSJzdDIiIGN4PSI3LjIzIiBjeT0iMTIiIHI9IjEuMTQiLz4mI3hhOzwvc3ZnPg==;" parent="GuzJ8BqgIlNCJu6hI-l5-1139" vertex="1">
          <mxGeometry width="22" height="30" relative="1" as="geometry">
            <mxPoint x="19" y="15" as="offset" />
          </mxGeometry>
        </mxCell>
        <mxCell id="GuzJ8BqgIlNCJu6hI-l5-1137" value="" style="strokeColor=#dddddd;shadow=1;strokeWidth=1;rounded=1;absoluteArcSize=1;arcSize=2;" parent="GuzJ8BqgIlNCJu6hI-l5-1007" vertex="1">
          <mxGeometry x="249.62" y="485" width="158.75" height="319.23" as="geometry" />
        </mxCell>
        <mxCell id="GuzJ8BqgIlNCJu6hI-l5-1138" value="&lt;font color=&quot;#000000&quot;&gt;SILVER LAYER&lt;/font&gt;" style="editableCssRules=.*;html=1;fontColor=#999999;shape=image;verticalLabelPosition=middle;verticalAlign=middle;labelPosition=right;align=left;spacingLeft=20;part=1;points=[];imageAspect=0;image=data:image/svg+xml,PHN2ZyB4bWxucz0iaHR0cDovL3d3dy53My5vcmcvMjAwMC9zdmciIHhtbG5zOnY9Imh0dHBzOi8vdmVjdGEuaW8vbmFubyIgd2lkdGg9IjIwIiBoZWlnaHQ9IjE2IiB2aWV3Qm94PSIwIDAgMjAgMTYiPiYjeGE7CTxzdHlsZSB0eXBlPSJ0ZXh0L2NzcyI+JiN4YTsJLnN0MHtmaWxsOiM0Mjg1ZjQ7fSYjeGE7CS5zdDF7ZmlsbDojNjY5ZGY2O30mI3hhOwkuc3Qye2ZpbGw6I2FlY2JmYTt9JiN4YTsJLnN0M3tmaWxsOiNmZmY7fSYjeGE7CTwvc3R5bGU+JiN4YTsJPHBhdGggY2xhc3M9InN0MiIgZD0iTTAgMGgyMHY3SDB6Ii8+JiN4YTsJPHBhdGggY2xhc3M9InN0MSIgZD0iTTE4IDBoMnY3aC0yeiIvPiYjeGE7CTxwYXRoIGNsYXNzPSJzdDAiIGQ9Ik0xOCA3bDItN2gtMnoiLz4mI3hhOwk8cGF0aCBjbGFzcz0ic3QxIiBkPSJNMCAwaDJ2N0gweiIvPiYjeGE7CTxnIGNsYXNzPSJzdDMiPiYjeGE7CQk8cGF0aCBkPSJNNCAzaDZ2MUg0eiIvPiYjeGE7CQk8cmVjdCB4PSIxMyIgeT0iMiIgd2lkdGg9IjMiIGhlaWdodD0iMyIgcng9IjEuNSIvPiYjeGE7CTwvZz4mI3hhOwk8cGF0aCBjbGFzcz0ic3QyIiBkPSJNMCA5aDIwdjdIMHoiLz4mI3hhOwk8cGF0aCBjbGFzcz0ic3QxIiBkPSJNMTggOWgydjdoLTJ6Ii8+JiN4YTsJPHBhdGggY2xhc3M9InN0MCIgZD0iTTE4IDE2bDItN2gtMnoiLz4mI3hhOwk8cGF0aCBjbGFzcz0ic3QxIiBkPSJNMCA5aDJ2N0gweiIvPiYjeGE7CTxnIGNsYXNzPSJzdDMiPiYjeGE7CQk8cGF0aCBkPSJNNCAxMmg2djFINHoiLz4mI3hhOwkJPHJlY3QgeD0iMTMiIHk9IjExIiB3aWR0aD0iMyIgaGVpZ2h0PSIzIiByeD0iMS41Ii8+JiN4YTsJPC9nPiYjeGE7PC9zdmc+;" parent="GuzJ8BqgIlNCJu6hI-l5-1137" vertex="1">
          <mxGeometry width="30" height="24" relative="1" as="geometry">
            <mxPoint x="15" y="18" as="offset" />
          </mxGeometry>
        </mxCell>
        <mxCell id="GuzJ8BqgIlNCJu6hI-l5-1036" style="edgeStyle=orthogonalEdgeStyle;rounded=0;html=1;dashed=0;labelBackgroundColor=none;startArrow=none;startFill=0;startSize=4;endArrow=blockThin;endFill=1;endSize=4;strokeColor=#4284F3;strokeWidth=2;fontSize=12;exitX=-0.015;exitY=0.519;exitDx=0;exitDy=0;exitPerimeter=0;" parent="GuzJ8BqgIlNCJu6hI-l5-1007" source="GuzJ8BqgIlNCJu6hI-l5-1137" target="GuzJ8BqgIlNCJu6hI-l5-1139" edge="1">
          <mxGeometry relative="1" as="geometry">
            <Array as="points" />
          </mxGeometry>
        </mxCell>
        <mxCell id="4pRTcxrm8gU1UKSyhKqA-1" value="" style="shape=mxgraph.gcp2.doubleRect;strokeColor=#dddddd;shadow=1;strokeWidth=1;rounded=1;absoluteArcSize=1;arcSize=2;" parent="GuzJ8BqgIlNCJu6hI-l5-1007" vertex="1">
          <mxGeometry x="183.5" y="50" width="180" height="270" as="geometry" />
        </mxCell>
        <mxCell id="4pRTcxrm8gU1UKSyhKqA-10" value="Lookup Activity&#xa;Metadata.json" style="shape=mxgraph.gcp2.doubleRect;strokeColor=#dddddd;shadow=1;strokeWidth=1;rounded=1;absoluteArcSize=1;arcSize=2;" parent="4pRTcxrm8gU1UKSyhKqA-1" vertex="1">
          <mxGeometry y="104.36630541871921" width="170" height="61.264285714285705" as="geometry" />
        </mxCell>
        <mxCell id="4pRTcxrm8gU1UKSyhKqA-11" value="" style="editableCssRules=.*;html=1;fontColor=#999999;shape=image;verticalLabelPosition=middle;verticalAlign=middle;labelPosition=right;align=left;spacingLeft=20;part=1;points=[];imageAspect=0;image=data:image/svg+xml,PHN2ZyB4bWxucz0iaHR0cDovL3d3dy53My5vcmcvMjAwMC9zdmciIHhtbG5zOnY9Imh0dHBzOi8vdmVjdGEuaW8vbmFubyIgd2lkdGg9IjIwIiBoZWlnaHQ9IjIwIiB2aWV3Qm94PSIwIDAgMjAgMjAiPiYjeGE7CTxzdHlsZSB0eXBlPSJ0ZXh0L2NzcyI+JiN4YTsJLnN0MHtmaWxsOiM0Mjg1ZjQ7fSYjeGE7CS5zdDF7ZmlsbDojNjY5ZGY2O30mI3hhOwkuc3Qye2ZpbGw6I2FlY2JmYTt9JiN4YTsJPC9zdHlsZT4mI3hhOwk8cGF0aCBjbGFzcz0ic3QyIiBkPSJNNyA3aDZ2Nkg3eiIvPiYjeGE7CTxwYXRoIGNsYXNzPSJzdDEiIGQ9Ik05IDBoMnY0SDl6TTUgMGgydjRINXptOCAwaDJ2NGgtMnoiLz4mI3hhOwk8cGF0aCBjbGFzcz0ic3QwIiBkPSJNOSAxNmgydjRIOXptLTQgMGgydjRINXptOCAwaDJ2NGgtMnptMy01VjloNHYyem0wIDR2LTJoNHYyem0wLThWNWg0djJ6Ii8+JiN4YTsJPHBhdGggY2xhc3M9InN0MSIgZD0iTTAgMTFWOWg0djJ6bTAgNHYtMmg0djJ6bTAtOFY1aDR2MnoiLz4mI3hhOwk8cGF0aCBjbGFzcz0ic3QyIiBkPSJNMyAzdjE0aDE0VjN6bTEyIDEySDVWNWgxMHoiLz4mI3hhOwk8cGF0aCBjbGFzcz0ic3QxIiBkPSJNMTAgMTBsLTMgM2g2eiIvPiYjeGE7CTxwYXRoIGNsYXNzPSJzdDAiIGQ9Ik0xMyA3bC0zIDMgMyAzeiIvPiYjeGE7PC9zdmc+;" parent="4pRTcxrm8gU1UKSyhKqA-10" vertex="1">
          <mxGeometry width="30" height="30" relative="1" as="geometry">
            <mxPoint x="15" y="15" as="offset" />
          </mxGeometry>
        </mxCell>
        <mxCell id="4pRTcxrm8gU1UKSyhKqA-5" value="" style="strokeColor=#dddddd;shadow=1;strokeWidth=1;rounded=1;absoluteArcSize=1;arcSize=2;" parent="4pRTcxrm8gU1UKSyhKqA-1" vertex="1">
          <mxGeometry y="210" width="170" height="60" as="geometry" />
        </mxCell>
        <mxCell id="4pRTcxrm8gU1UKSyhKqA-6" value="&lt;font style=&quot;font-size: 13px;&quot; color=&quot;#000000&quot;&gt;Source_bronze_&lt;/font&gt;&lt;div&gt;&lt;font style=&quot;font-size: 13px;&quot; color=&quot;#000000&quot;&gt;notebook&lt;/font&gt;&lt;/div&gt;" style="editableCssRules=.*;html=1;fontColor=#999999;shape=image;verticalLabelPosition=middle;verticalAlign=middle;labelPosition=right;align=left;spacingLeft=20;part=1;points=[];imageAspect=0;image=data:image/svg+xml,PHN2ZyB4bWxucz0iaHR0cDovL3d3dy53My5vcmcvMjAwMC9zdmciIHhtbG5zOnY9Imh0dHBzOi8vdmVjdGEuaW8vbmFubyIgd2lkdGg9IjE4LjMxOTk5OTY5NDgyNDIyIiBoZWlnaHQ9IjIwLjAwMDAwMTkwNzM0ODYzMyIgdmlld0JveD0iMCAwIDE4LjMxOTk5OTY5NDgyNDIyIDIwLjAwMDAwMTkwNzM0ODYzMyI+JiN4YTsJPHN0eWxlIHR5cGU9InRleHQvY3NzIj4mI3hhOwkuc3Qwe2ZpbGw6IzY2OWRmNjt9JiN4YTsJLnN0MXtmaWxsOiM0Mjg1ZjQ7fSYjeGE7CS5zdDJ7ZmlsbDojYWVjYmZhO30mI3hhOwk8L3N0eWxlPiYjeGE7CTxkZWZzPiYjeGE7CQk8ZmlsdGVyIGlkPSJBIiB4PSI0LjY0IiB5PSI0LjE5IiB3aWR0aD0iMTQuNzMiIGhlaWdodD0iMTIuNzYiIGZpbHRlclVuaXRzPSJ1c2VyU3BhY2VPblVzZSIgY29sb3ItaW50ZXJwb2xhdGlvbi1maWx0ZXJzPSJzUkdCIj4mI3hhOwkJCTxmZUZsb29kIGZsb29kLWNvbG9yPSIjZmZmIi8+JiN4YTsJCQk8ZmVCbGVuZCBpbj0iU291cmNlR3JhcGhpYyIvPiYjeGE7CQk8L2ZpbHRlcj4mI3hhOwkJPG1hc2sgaWQ9IkIiIHg9IjQuNjQiIHk9IjQuMTkiIHdpZHRoPSIxNC43MyIgaGVpZ2h0PSIxMi43NiIgbWFza1VuaXRzPSJ1c2VyU3BhY2VPblVzZSI+JiN4YTsJCQk8Y2lyY2xlIGN4PSIxMiIgY3k9IjEyLjIzIiByPSIzLjU4IiBmaWx0ZXI9InVybCgjQSkiLz4mI3hhOwkJPC9tYXNrPiYjeGE7CTwvZGVmcz4mI3hhOwk8ZyBjbGFzcz0ic3QwIj4mI3hhOwkJPGNpcmNsZSBjeD0iMTYuMTMiIGN5PSI2LjIxIiByPSIxLjcyIi8+JiN4YTsJCTxjaXJjbGUgY3g9IjIuMTkiIGN5PSI2LjIxIiByPSIxLjcyIi8+JiN4YTsJCTxjaXJjbGUgY3g9IjkuMTYiIGN5PSIxOC4yOCIgcj0iMS43MiIvPiYjeGE7CTwvZz4mI3hhOwk8ZyBtYXNrPSJ1cmwoI0IpIiB0cmFuc2Zvcm09InRyYW5zbGF0ZSgtMi44NCAtMikiPiYjeGE7CQk8cGF0aCB0cmFuc2Zvcm09Im1hdHJpeCguNSAtLjg3IC44NyAuNSAtNC41OSAyMC41MykiIGQ9Ik0xNC42OSAxMC4yMmgxLjU5djguMDRoLTEuNTl6IiBjbGFzcz0ic3QxIi8+JiN4YTsJCTxwYXRoIHRyYW5zZm9ybT0icm90YXRlKDMzMCA4LjUyMyAxNC4yNDQpIiBkPSJNNC40OSAxMy40NWg4LjA0djEuNTlINC40OXoiIGNsYXNzPSJzdDEiLz4mI3hhOwkJPHBhdGggZD0iTTExLjIgNC4xOWgxLjU5djguMDRIMTEuMnoiIGNsYXNzPSJzdDEiLz4mI3hhOwk8L2c+JiN4YTsJPGcgY2xhc3M9InN0MiI+JiN4YTsJCTxjaXJjbGUgY3g9IjkuMTYiIGN5PSIxMC4yMyIgcj0iMi43OCIvPiYjeGE7CQk8Y2lyY2xlIGN4PSIyLjE5IiBjeT0iMTQuMjUiIHI9IjIuMTkiLz4mI3hhOwkJPGNpcmNsZSBjeD0iMTYuMTMiIGN5PSIxNC4yNSIgcj0iMi4xOSIvPiYjeGE7CQk8Y2lyY2xlIGN4PSI5LjE2IiBjeT0iMi4xOSIgcj0iMi4xOSIvPiYjeGE7CTwvZz4mI3hhOzwvc3ZnPg==;" parent="4pRTcxrm8gU1UKSyhKqA-5" vertex="1">
          <mxGeometry width="27" height="30" relative="1" as="geometry">
            <mxPoint x="16" y="15" as="offset" />
          </mxGeometry>
        </mxCell>
        <mxCell id="4pRTcxrm8gU1UKSyhKqA-27" style="edgeStyle=orthogonalEdgeStyle;rounded=0;orthogonalLoop=1;jettySize=auto;html=1;entryX=0.5;entryY=0;entryDx=0;entryDy=0;" parent="4pRTcxrm8gU1UKSyhKqA-1" target="4pRTcxrm8gU1UKSyhKqA-5" edge="1">
          <mxGeometry relative="1" as="geometry">
            <mxPoint x="85" y="167.58620689655172" as="sourcePoint" />
            <mxPoint x="95" y="167.14285714285714" as="targetPoint" />
            <Array as="points" />
          </mxGeometry>
        </mxCell>
        <mxCell id="4pRTcxrm8gU1UKSyhKqA-31" value="&lt;font style=&quot;font-size: 20px;&quot;&gt;&lt;u&gt;Data Pipeline&lt;/u&gt;&lt;/font&gt;" style="text;html=1;align=center;verticalAlign=middle;resizable=0;points=[];autosize=1;strokeColor=none;fillColor=none;" parent="4pRTcxrm8gU1UKSyhKqA-1" vertex="1">
          <mxGeometry x="14.999999999999996" y="10" width="140" height="40" as="geometry" />
        </mxCell>
        <mxCell id="GuzJ8BqgIlNCJu6hI-l5-1014" value="mc-trace database&amp;nbsp;" style="rounded=1;absoluteArcSize=1;arcSize=2;html=1;strokeColor=none;gradientColor=none;shadow=0;dashed=0;fontSize=12;fontColor=#9E9E9E;align=left;verticalAlign=top;spacing=10;spacingTop=-4;fillColor=#EFEBE9;" parent="1" vertex="1">
          <mxGeometry x="96.75" y="260" width="110" height="130" as="geometry" />
        </mxCell>
        <mxCell id="GuzJ8BqgIlNCJu6hI-l5-1019" value="On-Premises&lt;br&gt;&lt;font style=&quot;font-size: 10px&quot;&gt;Databases&lt;/font&gt;&lt;br&gt;" style="rounded=1;absoluteArcSize=1;arcSize=2;html=1;strokeColor=none;gradientColor=none;shadow=0;dashed=0;fontSize=12;fontColor=#9E9E9E;align=left;verticalAlign=top;spacing=10;spacingTop=-4;fillColor=#EFEBE9;" parent="1" vertex="1">
          <mxGeometry x="125.25" y="478.5" width="110" height="130" as="geometry" />
        </mxCell>
        <mxCell id="GuzJ8BqgIlNCJu6hI-l5-1020" value="" style="strokeColor=#dddddd;fillColor=#ffffff;shadow=1;strokeWidth=1;rounded=1;absoluteArcSize=1;arcSize=2;labelPosition=center;verticalLabelPosition=middle;align=center;verticalAlign=bottom;spacingLeft=0;fontColor=#999999;fontSize=12;whiteSpace=wrap;spacingBottom=2;html=1;" parent="1" vertex="1">
          <mxGeometry x="145.25" y="527.5" width="70" height="69" as="geometry" />
        </mxCell>
        <mxCell id="GuzJ8BqgIlNCJu6hI-l5-1021" value="" style="dashed=0;connectable=0;html=1;fillColor=#757575;strokeColor=none;shape=mxgraph.gcp2.database;part=1;" parent="GuzJ8BqgIlNCJu6hI-l5-1020" vertex="1">
          <mxGeometry x="0.5" width="50" height="45" relative="1" as="geometry">
            <mxPoint x="-25" y="12.5" as="offset" />
          </mxGeometry>
        </mxCell>
        <mxCell id="v5ydKry3m4Xs0vGYlW_U-3" value="" style="shape=image;verticalLabelPosition=bottom;labelBackgroundColor=#ffffff;verticalAlign=top;aspect=fixed;imageAspect=0;image=data:image/svg+xml,PHN2ZyB4bWxuczpjYz0iaHR0cDovL2NyZWF0aXZlY29tbW9ucy5vcmcvbnMjIiB4bWxuczpkYz0iaHR0cDovL3B1cmwub3JnL2RjL2VsZW1lbnRzLzEuMS8iIHhtbG5zOmlua3NjYXBlPSJodHRwOi8vd3d3Lmlua3NjYXBlLm9yZy9uYW1lc3BhY2VzL2lua3NjYXBlIiB4bWxuczpyZGY9Imh0dHA6Ly93d3cudzMub3JnLzE5OTkvMDIvMjItcmRmLXN5bnRheC1ucyMiIHhtbG5zOnNvZGlwb2RpPSJodHRwOi8vc29kaXBvZGkuc291cmNlZm9yZ2UubmV0L0RURC9zb2RpcG9kaS0wLmR0ZCIgeG1sbnM6c3ZnPSJodHRwOi8vd3d3LnczLm9yZy8yMDAwL3N2ZyIgeG1sbnM9Imh0dHA6Ly93d3cudzMub3JnLzIwMDAvc3ZnIiB4bWxuczp4bGluaz0iaHR0cDovL3d3dy53My5vcmcvMTk5OS94bGluayIgdmVyc2lvbj0iMS4xIiBpZD0ic3ZnMTAzMTA4IiBpbmtzY2FwZTp2ZXJzaW9uPSIwLjkyLjMgKDI0MDU1NDYsIDIwMTgtMDMtMTEpIiBzb2RpcG9kaTpkb2NuYW1lPSJwb3N0Z3Jlc3FsXzEuc3ZnIiB4PSIwcHgiIHk9IjBweCIgdmlld0JveD0iMCAwIDUyLjg4IDYwLjA3IiBzdHlsZT0iZW5hYmxlLWJhY2tncm91bmQ6bmV3IDAgMCA1Mi44OCA2MC4wNzsiIHhtbDpzcGFjZT0icHJlc2VydmUiPiYjeGE7PHNvZGlwb2RpOm5hbWVkdmlldyBib3JkZXJjb2xvcj0iIzY2NjY2NiIgYm9yZGVyb3BhY2l0eT0iMSIgZml0LW1hcmdpbi1ib3R0b209IjAiIGZpdC1tYXJnaW4tbGVmdD0iMCIgZml0LW1hcmdpbi1yaWdodD0iMCIgZml0LW1hcmdpbi10b3A9IjAiIGdyaWR0b2xlcmFuY2U9IjEwIiBndWlkZXRvbGVyYW5jZT0iMTAiIGlkPSJuYW1lZHZpZXcxMDMxMTAiIGlua3NjYXBlOmN1cnJlbnQtbGF5ZXI9InN2ZzEwMzEwOCIgaW5rc2NhcGU6Y3g9IjM1LjI1IiBpbmtzY2FwZTpjeT0iNDAuMDQ1MTk5IiBpbmtzY2FwZTpwYWdlb3BhY2l0eT0iMCIgaW5rc2NhcGU6cGFnZXNoYWRvdz0iMiIgaW5rc2NhcGU6d2luZG93LWhlaWdodD0iMTAxNyIgaW5rc2NhcGU6d2luZG93LW1heGltaXplZD0iMSIgaW5rc2NhcGU6d2luZG93LXdpZHRoPSIxOTIwIiBpbmtzY2FwZTp3aW5kb3cteD0iLTgiIGlua3NjYXBlOndpbmRvdy15PSItOCIgaW5rc2NhcGU6em9vbT0iMTAuODI0NDc2IiBvYmplY3R0b2xlcmFuY2U9IjEwIiBwYWdlY29sb3I9IiNmZmZmZmYiIHNob3dncmlkPSJmYWxzZSI+JiN4YTsJPC9zb2RpcG9kaTpuYW1lZHZpZXc+JiN4YTs8ZyBpZD0iZzEwMzEwNiI+JiN4YTsJPHRpdGxlIGlkPSJ0aXRsZTEwMjk2OSI+UGFnZS0xPC90aXRsZT4mI3hhOwk8ZyBpZD0iZ3JvdXAzNzIyLTEiPiYjeGE7CQk8dGl0bGUgaWQ9InRpdGxlMTAyOTcxIj5Qb3N0Z3JlU1FMICMxPC90aXRsZT4mI3hhOwkJPGcgaWQ9InNoYXBlMzcyMy0yIj4mI3hhOwkJCTx0aXRsZSBpZD0idGl0bGUxMDI5NzMiPkRhdGFiYXNlICMyPC90aXRsZT4mI3hhOwkJCTxwYXRoIGlkPSJwYXRoMTAyOTc1IiBpbmtzY2FwZTpjb25uZWN0b3ItY3VydmF0dXJlPSIwIiBzdHlsZT0iZmlsbDojM0Y1NzY1OyIgZD0iTTI2LjcxLDBjMTQuNjQsMCwyNi4xNywzLjkzLDI2LjE3LDguMzEgICAgIGMwLDQzLjU0LDAsNDMuNTQsMCw0My41NGMwLDQuODMtMTEuNTMsOC4yMi0yNi4xNyw4LjIyQzEyLjE1LDYwLjA3LDAsNTYuNjgsMCw1MS44NUMwLDguMzEsMCw4LjMxLDAsOC4zMSAgICAgQzAsMy45MywxMi4xNSwwLDI2LjcxLDB6IE0yNi43MSwxNC4yMWMxMi41OSwwLDIyLjY4LTIuOTUsMjIuNjgtNS45YzAtMi44Ni0xMC4wOS01LjM2LTIyLjY4LTUuMzZjLTEyLjYsMC0yMi42LDIuNS0yMi42LDUuMzYgICAgIEM0LjExLDExLjI2LDE0LjExLDE0LjIxLDI2LjcxLDE0LjIxeiIvPiYjeGE7CQk8L2c+JiN4YTsJCTxnIGlkPSJncm91cDM3MjQtNCIgdHJhbnNmb3JtPSJ0cmFuc2xhdGUoOS44NDcyNCwtNS40NTA1MykiPiYjeGE7CQkJPHRpdGxlIGlkPSJ0aXRsZTEwMjk3OCI+U2hlZXQuMzcyNDwvdGl0bGU+JiN4YTsJCQk8ZyBpZD0ic2hhcGUzNzI1LTUiIHRyYW5zZm9ybT0idHJhbnNsYXRlKDE1LjQ5NikiPiYjeGE7CQkJCTx0aXRsZSBpZD0idGl0bGUxMDI5ODAiPnBhdGgyNDY2LTU8L3RpdGxlPiYjeGE7CQkJCTxwYXRoIGlkPSJwYXRoMTAyOTgyIiBpbmtzY2FwZTpjb25uZWN0b3ItY3VydmF0dXJlPSIwIiBzdHlsZT0iZmlsbDpub25lOyIgZD0iTTAuMTEsNDkuMzFDMCw1My4zOCwwLjMsNTYuNjEsMC42OSw1Ny42ICAgICAgYzAuNCwxLDEuNzIsMi40Nyw0LjY1LDEuODRjMi40NS0wLjUyLDMuNTctMS41NCwzLjk2LTMuNzhjMC4yOC0xLjY1LDAuNjgtNS4wNiwwLjc1LTZMMC4xMSw0OS4zMXoiLz4mI3hhOwkJCQkmI3hhOwkJCQkJPHBhdGggaWQ9InBhdGgxMDI5ODQiIGlua3NjYXBlOmNvbm5lY3Rvci1jdXJ2YXR1cmU9IjAiIHN0eWxlPSJmaWxsOm5vbmU7c3Ryb2tlOiMzRjU3NjU7c3Ryb2tlLWxpbmVjYXA6cm91bmQ7c3Ryb2tlLWxpbmVqb2luOnJvdW5kO3N0cm9rZS1taXRlcmxpbWl0OjM7IiBkPSIgICAgICBNMC4xMSw0OS4zMUMwLDUzLjM4LDAuMyw1Ni42MSwwLjY5LDU3LjZjMC40LDEsMS43MiwyLjQ3LDQuNjUsMS44NGMyLjQ1LTAuNTIsMy41Ny0xLjU0LDMuOTYtMy43OGMwLjI4LTEuNjUsMC42OC01LjA2LDAuNzUtNiIvPiYjeGE7CQkJPC9nPiYjeGE7CQkJPGcgaWQ9InNoYXBlMzcyNi04IiB0cmFuc2Zvcm09InRyYW5zbGF0ZSgwLC00Ljg1MzQ2KSI+JiN4YTsJCQkJPHRpdGxlIGlkPSJ0aXRsZTEwMjk4NyI+cGF0aDI0NjgtMDwvdGl0bGU+JiN4YTsJCQkJPHBhdGggaWQ9InBhdGgxMDI5ODkiIGlua3NjYXBlOmNvbm5lY3Rvci1jdXJ2YXR1cmU9IjAiIHN0eWxlPSJmaWxsOm5vbmU7IiBkPSJNMTMuNSwzMy4zYzAsMC0xMy41LTUuNDItMTIuODgsNi45MSAgICAgIGMwLjEzLDIuNjMsMy45OSwxOS44Niw4LjMyLDE0LjY2YzIuNjItMi40NCwzLjAxLTMuNCwzLjAxLTMuNEwxMy41LDMzLjN6Ii8+JiN4YTsJCQkJJiN4YTsJCQkJCTxwYXRoIGlkPSJwYXRoMTAyOTkxIiBpbmtzY2FwZTpjb25uZWN0b3ItY3VydmF0dXJlPSIwIiBzdHlsZT0iZmlsbDpub25lO3N0cm9rZTojM0Y1NzY1O3N0cm9rZS1saW5lY2FwOnJvdW5kO3N0cm9rZS1saW5lam9pbjpyb3VuZDtzdHJva2UtbWl0ZXJsaW1pdDozOyIgZD0iICAgICAgTTEzLjUsMzMuM2MwLDAtMTMuNS01LjQyLTEyLjg4LDYuOTFjMC4xMywyLjYzLDMuOTksMTkuODYsOC4zMiwxNC42NmMyLjYyLTIuNDQsMy4wMS0zLjQsMy4wMS0zLjQiLz4mI3hhOwkJCTwvZz4mI3hhOwkJCTxnIGlkPSJzaGFwZTM3MjctMTEiIHRyYW5zZm9ybT0idHJhbnNsYXRlKDE5LjI2NjgsLTEzLjA3NjgpIj4mI3hhOwkJCQk8dGl0bGUgaWQ9InRpdGxlMTAyOTk0Ij5wYXRoMjQ3MC03PC90aXRsZT4mI3hhOwkJCQk8cGF0aCBpZD0icGF0aDEwMjk5NiIgaW5rc2NhcGU6Y29ubmVjdG9yLWN1cnZhdHVyZT0iMCIgc3R5bGU9ImZpbGw6IzNGNTc2NTsiIGQ9Ik0wLjQ2LDQwLjU0QzAsNDAuNjgsNy44NCwzNy42NywxMi4zLDQzLjM2ICAgICAgYzEuNTcsMi4wMi0wLjI1LDEwLjI0LTQuNjIsMTYuNzFMMC40Niw0MC41NHoiLz4mI3hhOwkJCQkmI3hhOwkJCQkJPHBhdGggaWQ9InBhdGgxMDI5OTgiIGlua3NjYXBlOmNvbm5lY3Rvci1jdXJ2YXR1cmU9IjAiIHN0eWxlPSJmaWxsOm5vbmU7c3Ryb2tlOiMzRjU3NjU7c3Ryb2tlLWxpbmVjYXA6cm91bmQ7c3Ryb2tlLWxpbmVqb2luOnJvdW5kO3N0cm9rZS1taXRlcmxpbWl0OjM7IiBkPSIgICAgICBNMC40Niw0MC41NEMwLDQwLjY4LDcuODQsMzcuNjcsMTIuMyw0My4zNmMxLjU3LDIuMDItMC4yNSwxMC4yNC00LjYyLDE2LjcxIi8+JiN4YTsJCQk8L2c+JiN4YTsJCQk8ZyBpZD0ic2hhcGUzNzI4LTE0IiB0cmFuc2Zvcm09InRyYW5zbGF0ZSg4LjkxMTY5LC05Ljc0ODU4KSI+JiN4YTsJCQkJPHRpdGxlIGlkPSJ0aXRsZTEwMzAwMSI+cGF0aDI0NzItMjwvdGl0bGU+JiN4YTsJCQkJPHBhdGggaWQ9InBhdGgxMDMwMDMiIGlua3NjYXBlOmNvbm5lY3Rvci1jdXJ2YXR1cmU9IjAiIHN0eWxlPSJmaWxsOm5vbmU7IiBkPSJNMTguMDQsNTUuNDFjMCwwLDAuMjgsMS40LDQuNDIsMC41NSAgICAgIGMxLjgxLTAuMzcsMC43MiwyLjM4LTEuMTIsMy4yM2MtMS41MSwwLjctNC44OCwwLjg4LTQuOTQtMC4wOEMxNi4yNiw1Ni42MSwxOC4xOCw1Ni4wNCwxOC4wNCw1NS40MSAgICAgIGMtMC4xMy0wLjU2LTAuOTgsMC4yMi0xLjU1LTEuMTZjLTAuNS0xLjItNi44MS0xMC40MiwxLjc1LTkuMDVjMC4zMS0wLjA3LTIuMjMtOC4xNC0xMC4yNC04LjI3Yy04LTAuMTMtNy43NCw5Ljg0LTcuNzQsOS44NCAgICAgIEwxOC4wNCw1NS40MXoiLz4mI3hhOwkJCQkmI3hhOwkJCQkJPHBhdGggaWQ9InBhdGgxMDMwMDUiIGlua3NjYXBlOmNvbm5lY3Rvci1jdXJ2YXR1cmU9IjAiIHN0eWxlPSJmaWxsOm5vbmU7c3Ryb2tlOiMzRjU3NjU7c3Ryb2tlLWxpbmVjYXA6cm91bmQ7c3Ryb2tlLWxpbmVqb2luOnJvdW5kO3N0cm9rZS1taXRlcmxpbWl0OjM7IiBkPSIgICAgICBNMTguMDQsNTUuNDFjMCwwLDAuMjgsMS40LDQuNDIsMC41NWMxLjgxLTAuMzcsMC43MiwyLjM4LTEuMTIsMy4yM2MtMS41MSwwLjctNC44OCwwLjg4LTQuOTQtMC4wOCAgICAgIEMxNi4yNiw1Ni42MSwxOC4xOCw1Ni4wNCwxOC4wNCw1NS40MWMtMC4xMy0wLjU2LTAuOTgsMC4yMi0xLjU1LTEuMTZjLTAuNS0xLjItNi44MS0xMC40MiwxLjc1LTkuMDUgICAgICBjMC4zMS0wLjA3LTIuMjMtOC4xNC0xMC4yNC04LjI3Yy04LTAuMTMtNy43NCw5Ljg0LTcuNzQsOS44NCIvPiYjeGE7CQkJPC9nPiYjeGE7CQkJPGcgaWQ9InNoYXBlMzcyOS0xNyIgdHJhbnNmb3JtPSJ0cmFuc2xhdGUoOC41NTcwNCwtOC4yMzMxNykiPiYjeGE7CQkJCTx0aXRsZSBpZD0idGl0bGUxMDMwMDgiPnBhdGgyNDc0LTc8L3RpdGxlPiYjeGE7CQkJCSYjeGE7CQkJCQk8cGF0aCBpZD0icGF0aDEwMzAxMCIgaW5rc2NhcGU6Y29ubmVjdG9yLWN1cnZhdHVyZT0iMCIgc3R5bGU9ImZpbGw6bm9uZTtzdHJva2U6IzNGNTc2NTtzdHJva2UtbGluZWNhcDpyb3VuZDtzdHJva2UtbGluZWpvaW46cm91bmQ7c3Ryb2tlLW1pdGVybGltaXQ6MzsiIGQ9IiAgICAgIE01LjI3LDU2LjA4Yy0xLjExLDEuMjUtMC43OCwxLjQ3LTMuMDEsMS45M0MwLDU4LjQ3LDEuMzMsNTguOTMsMi4xOSw1OS4xOGMxLjg2LDAuMzQsMy4zMiwwLjg5LDUuMTItMS4wMiAgICAgIGMwLjUtMC43LTAuMDEtMi4xMi0wLjY5LTIuNDFDNi4yOSw1NS42Miw1Ljg0LDU1LjQ0LDUuMjcsNTYuMDh6Ii8+JiN4YTsJCQk8L2c+JiN4YTsJCQk8ZyBpZD0ic2hhcGUzNzMwLTE5IiB0cmFuc2Zvcm09InRyYW5zbGF0ZSg4LjY2MjMyLC0xMi4yNDU1KSI+JiN4YTsJCQkJPHRpdGxlIGlkPSJ0aXRsZTEwMzAxMyI+cGF0aDI0NzYtMTwvdGl0bGU+JiN4YTsJCQkJPHBhdGggaWQ9InBhdGgxMDMwMTUiIGlua3NjYXBlOmNvbm5lY3Rvci1jdXJ2YXR1cmU9IjAiIHN0eWxlPSJmaWxsOm5vbmU7IiBkPSJNNS4xLDYwLjA3Yy0wLjEyLTAuNzMsMC4yNC0xLjYsMC42MS0yLjYyICAgICAgYzAuNTctMS41MywxLjg5LTMuMDYsMC44NC03LjkyYy0wLjc5LTMuNjItNi4wMy0wLjc1LTYuMDQtMC4yNmMwLDAuNDksMC4yNCwyLjQ5LTAuMDksNC44MWMtMC40MiwzLjAzLDEuOTMsNS42LDQuNjUsNS4zNCAgICAgIEw1LjEsNjAuMDd6Ii8+JiN4YTsJCQkJJiN4YTsJCQkJCTxwYXRoIGlkPSJwYXRoMTAzMDE3IiBpbmtzY2FwZTpjb25uZWN0b3ItY3VydmF0dXJlPSIwIiBzdHlsZT0iZmlsbDpub25lO3N0cm9rZTojMDAwMDAwO3N0cm9rZS1saW5lY2FwOnJvdW5kO3N0cm9rZS1saW5lam9pbjpyb3VuZDtzdHJva2UtbWl0ZXJsaW1pdDozOyIgZD0iICAgICAgTTUuMSw2MC4wN2MtMC4xMi0wLjczLDAuMjQtMS42LDAuNjEtMi42MmMwLjU3LTEuNTMsMS44OS0zLjA2LDAuODQtNy45MmMtMC43OS0zLjYyLTYuMDMtMC43NS02LjA0LTAuMjYgICAgICBjMCwwLjQ5LDAuMjQsMi40OS0wLjA5LDQuODFjLTAuNDIsMy4wMywxLjkzLDUuNiw0LjY1LDUuMzQiLz4mI3hhOwkJCTwvZz4mI3hhOwkJCTxnIGlkPSJzaGFwZTM3MzEtMjIiIHRyYW5zZm9ybT0idHJhbnNsYXRlKDEyLjQ4NTQsLTIyLjM4OCkiPiYjeGE7CQkJCTx0aXRsZSBpZD0idGl0bGUxMDMwMjAiPnBhdGgyNDc4LTQ8L3RpdGxlPiYjeGE7CQkJCTxwYXRoIGlkPSJwYXRoMTAzMDIyIiBpbmtzY2FwZTpjb25uZWN0b3ItY3VydmF0dXJlPSIwIiBzdHlsZT0iZmlsbDpub25lO3N0cm9rZTojMDAwMDAwO3N0cm9rZS1taXRlcmxpbWl0OjM7IiBkPSJNMC4wMiw1OS4zNCAgICAgIEMwLDU5LjUxLDAuMzMsNTkuOTUsMC43Niw2MC4wMWMwLjQzLDAuMDYsMC44LTAuMjksMC44Mi0wLjQ1YzAuMDMtMC4xNy0wLjMtMC4zNi0wLjczLTAuNDJDMC40MSw1OS4wOCwwLjA1LDU5LjE3LDAuMDIsNTkuMzR6Ii8+JiN4YTsJCQk8L2c+JiN4YTsJCQk8ZyBpZD0ic2hhcGUzNzMyLTI0IiB0cmFuc2Zvcm09InRyYW5zbGF0ZSgyNC4wMjY0LC0yMi43Mjk1KSI+JiN4YTsJCQkJPHRpdGxlIGlkPSJ0aXRsZTEwMzAyNSI+cGF0aDI0ODAtODwvdGl0bGU+JiN4YTsJCQkJPHBhdGggaWQ9InBhdGgxMDMwMjciIGlua3NjYXBlOmNvbm5lY3Rvci1jdXJ2YXR1cmU9IjAiIHN0eWxlPSJmaWxsOm5vbmU7c3Ryb2tlOiMwMDAwMDA7c3Ryb2tlLW1pdGVybGltaXQ6MzsiIGQ9Ik0xLjU4LDU5LjM0ICAgICAgYzAuMDMsMC4xNy0wLjMsMC42MS0wLjc0LDAuNjdjLTAuNDMsMC4wNi0wLjc5LTAuMjktMC44Mi0wLjQ1QzAsNTkuMzksMC4zMyw1OS4yLDAuNzYsNTkuMTRTMS41Niw1OS4xNywxLjU4LDU5LjM0eiIvPiYjeGE7CQkJPC9nPiYjeGE7CQkJPGcgaWQ9InNoYXBlMzczMy0yNiIgdHJhbnNmb3JtPSJ0cmFuc2xhdGUoMjYuMjI5OCwtMTQuMzIzNSkiPiYjeGE7CQkJCTx0aXRsZSBpZD0idGl0bGUxMDMwMzAiPnBhdGgyNDgyLTQ8L3RpdGxlPiYjeGE7CQkJCTxwYXRoIGlkPSJwYXRoMTAzMDMyIiBpbmtzY2FwZTpjb25uZWN0b3ItY3VydmF0dXJlPSIwIiBzdHlsZT0iZmlsbDpub25lOyIgZD0iTTAuOTIsNDkuNzdjMC4wNywxLjMyLTAuMjgsMi4yMS0wLjMzLDMuNjEgICAgICBDMC41Miw1NS40MSwxLjU2LDU3Ljc0LDAsNjAuMDdMMC45Miw0OS43N3oiLz4mI3hhOwkJCQkmI3hhOwkJCQkJPHBhdGggaWQ9InBhdGgxMDMwMzQiIGlua3NjYXBlOmNvbm5lY3Rvci1jdXJ2YXR1cmU9IjAiIHN0eWxlPSJmaWxsOm5vbmU7c3Ryb2tlOiMwMDAwMDA7c3Ryb2tlLWxpbmVjYXA6cm91bmQ7c3Ryb2tlLWxpbmVqb2luOnJvdW5kO3N0cm9rZS1taXRlcmxpbWl0OjM7IiBkPSIgICAgICBNMC45Miw0OS43N2MwLjA3LDEuMzItMC4yOCwyLjIxLTAuMzMsMy42MUMwLjUyLDU1LjQxLDEuNTYsNTcuNzQsMCw2MC4wNyIvPiYjeGE7CQkJPC9nPiYjeGE7CQkJPGcgaWQ9InNoYXBlMzczNC0yOSIgdHJhbnNmb3JtPSJ0cmFuc2xhdGUoMTAuNjE3NiwtMTEuMzI0MSkiPiYjeGE7CQkJCTx0aXRsZSBpZD0idGl0bGUxMDMwMzciPnBhdGgxMTY3ODwvdGl0bGU+JiN4YTsJCQkJJiN4YTsJCQkJCTxwYXRoIGlkPSJwYXRoMTAzMDM5IiBpbmtzY2FwZTpjb25uZWN0b3ItY3VydmF0dXJlPSIwIiBzdHlsZT0iZmlsbDojM0Y1NzY1O3N0cm9rZTojM0Y1NzY1O3N0cm9rZS1saW5lY2FwOnNxdWFyZTtzdHJva2UtbWl0ZXJsaW1pdDozOyIgZD0iICAgICAgTTAuNTEsNTguNDhsMi41Ni0wLjA2bC0xLjEyLDEuNjVMMCw1OS45TDAuNTEsNTguNDh6Ii8+JiN4YTsJCQk8L2c+JiN4YTsJCQk8ZyBpZD0ic2hhcGUzNzM1LTMxIiB0cmFuc2Zvcm09InRyYW5zbGF0ZSgwLjk5ODM3OSwtMC44ODYwNTQpIj4mI3hhOwkJCQk8dGl0bGUgaWQ9InRpdGxlMTAzMDQyIj5wYXRoMjQ2NDwvdGl0bGU+JiN4YTsJCQkJJiN4YTsJCQkJCTxwYXRoIGlkPSJwYXRoMTAzMDQ0IiBpbmtzY2FwZTpjb25uZWN0b3ItY3VydmF0dXJlPSIwIiBzdHlsZT0iZmlsbDojM0Y1NzY1O3N0cm9rZTojRkZGRkZGO3N0cm9rZS1saW5lY2FwOnJvdW5kO3N0cm9rZS1saW5lam9pbjpyb3VuZDtzdHJva2UtbWl0ZXJsaW1pdDozOyIgZD0iICAgICAgTTI5LjU3LDQ3LjgyYy0zLjgxLDAuNzktNC4wNy0wLjUtNC4wNy0wLjVjNC4wMi01Ljk3LDUuNy0xMy41NCw0LjI1LTE1LjRjLTMuOTYtNS4wNi0xMC44MS0yLjY2LTEwLjkyLTIuNmgtMC4wNCAgICAgIGMtMC43NS0wLjE1LTEuNi0wLjI0LTIuNTQtMC4yNmMtMS43My0wLjAzLTMuMDMsMC40NS00LjAzLDEuMmMwLDAtMTIuMjItNS4wMy0xMS42NSw2LjM0YzAuMTIsMi40MiwzLjQ3LDE4LjMsNy40NiwxMy41ICAgICAgYzEuNDUtMS43NSwyLjg2LTMuMjQsMi44Ni0zLjI0YzAuNywwLjQ3LDEuNTQsMC43MSwyLjQyLDAuNjJsMC4wNy0wLjA2Yy0wLjAyLDAuMjItMC4wMSwwLjQzLDAuMDMsMC42OSAgICAgIGMtMS4wMywxLjE0LTAuNzMsMS4zNS0yLjc5LDEuNzdjLTIuMDgsMC40My0wLjg1LDEuMTktMC4wNiwxLjM5YzAuOTcsMC4yNCwzLjIxLDAuNTgsNC43Mi0xLjUzbC0wLjA2LDAuMjQgICAgICBjMC40LDAuMzIsMC42OCwyLjEsMC42NCwzLjcxYy0wLjA1LDEuNjEtMC4wOCwyLjcxLDAuMjQsMy41OGMwLjMxLDAuODYsMC42MywyLjgsMy4zMywyLjIyYzIuMjYtMC40OCwzLjQzLTEuNzMsMy41OS0zLjgzICAgICAgYzAuMTItMS40OCwwLjM4LTEuMjYsMC4zOS0yLjU5bDAuMjEtMC42M2MwLjI1LTIuMDIsMC4wNC0yLjY3LDEuNDMtMi4zNmwwLjM0LDAuMDNjMS4wMiwwLjA0LDIuMzYtMC4xNywzLjE1LTAuNTMgICAgICBDMzAuMjMsNDguNzksMzEuMjQsNDcuNDgsMjkuNTcsNDcuODJ6Ii8+JiN4YTsJCQk8L2c+JiN4YTsJCQk8ZyBpZD0ic2hhcGUzNzM2LTMzIiB0cmFuc2Zvcm09InRyYW5zbGF0ZSgxNi4zMzY1LC0wLjgzMzg5OSkiPiYjeGE7CQkJCTx0aXRsZSBpZD0idGl0bGUxMDMwNDciPnBhdGgyNDY2PC90aXRsZT4mI3hhOwkJCQk8cGF0aCBpZD0icGF0aDEwMzA0OSIgaW5rc2NhcGU6Y29ubmVjdG9yLWN1cnZhdHVyZT0iMCIgc3R5bGU9ImZpbGw6IzNGNTc2NTsiIGQ9Ik0wLjEsNDguOTNjLTAuMSwzLjc1LDAuMDMsNy41MiwwLjQsOC40NCAgICAgIHMxLjE1LDIuNywzLjg1LDIuMTJjMi4yNi0wLjQ4LDMuMDgtMS40MiwzLjQ0LTMuNDhjMC4yNi0xLjUyLDAuNzctNS43NSwwLjgzLTYuNjFMMC4xLDQ4LjkzeiIvPiYjeGE7CQkJCSYjeGE7CQkJCQk8cGF0aCBpZD0icGF0aDEwMzA1MSIgaW5rc2NhcGU6Y29ubmVjdG9yLWN1cnZhdHVyZT0iMCIgc3R5bGU9ImZpbGw6bm9uZTtzdHJva2U6I0ZGRkZGRjtzdHJva2UtbGluZWNhcDpyb3VuZDtzdHJva2UtbGluZWpvaW46cm91bmQ7c3Ryb2tlLW1pdGVybGltaXQ6MzsiIGQ9IiAgICAgIE0wLjEsNDguOTNjLTAuMSwzLjc1LDAuMDMsNy41MiwwLjQsOC40NHMxLjE1LDIuNywzLjg1LDIuMTJjMi4yNi0wLjQ4LDMuMDgtMS40MiwzLjQ0LTMuNDhjMC4yNi0xLjUyLDAuNzctNS43NSwwLjgzLTYuNjEiLz4mI3hhOwkJCTwvZz4mI3hhOwkJCTxnIGlkPSJzaGFwZTM3MzctMzYiIHRyYW5zZm9ybT0idHJhbnNsYXRlKDAuOTcxMjA0LC02LjEwNzUzKSI+JiN4YTsJCQkJPHRpdGxlIGlkPSJ0aXRsZTEwMzA1NCI+cGF0aDI0Njg8L3RpdGxlPiYjeGE7CQkJCTxwYXRoIGlkPSJwYXRoMTAzMDU2IiBpbmtzY2FwZTpjb25uZWN0b3ItY3VydmF0dXJlPSIwIiBzdHlsZT0iZmlsbDojM0Y1NzY1OyIgZD0iTTEyLjIzLDM1LjRjMCwwLTEyLjIzLTUtMTEuNjYsNi4zNyAgICAgIGMwLjEyLDIuNDIsMy40NywxOC4zLDcuNDYsMTMuNWMxLjQ1LTEuNzUsMi43Ny0zLjEzLDIuNzctMy4xM0wxMi4yMywzNS40eiIvPiYjeGE7CQkJCSYjeGE7CQkJCQk8cGF0aCBpZD0icGF0aDEwMzA1OCIgaW5rc2NhcGU6Y29ubmVjdG9yLWN1cnZhdHVyZT0iMCIgc3R5bGU9ImZpbGw6bm9uZTtzdHJva2U6I0ZGRkZGRjtzdHJva2UtbGluZWNhcDpyb3VuZDtzdHJva2UtbGluZWpvaW46cm91bmQ7c3Ryb2tlLW1pdGVybGltaXQ6MzsiIGQ9IiAgICAgIE0xMi4yMywzNS40YzAsMC0xMi4yMy01LTExLjY2LDYuMzdjMC4xMiwyLjQyLDMuNDcsMTguMyw3LjQ2LDEzLjVjMS40NS0xLjc1LDIuNzctMy4xMywyLjc3LTMuMTMiLz4mI3hhOwkJCTwvZz4mI3hhOwkJCTxnIGlkPSJzaGFwZTM3MzgtMzkiIHRyYW5zZm9ybT0idHJhbnNsYXRlKDE5LjM4NjcsLTEzLjY4NjIpIj4mI3hhOwkJCQk8dGl0bGUgaWQ9InRpdGxlMTAzMDYxIj5wYXRoMjQ3MDwvdGl0bGU+JiN4YTsJCQkJPHBhdGggaWQ9InBhdGgxMDMwNjMiIGlua3NjYXBlOmNvbm5lY3Rvci1jdXJ2YXR1cmU9IjAiIHN0eWxlPSJmaWxsOiMzRjU3NjU7IiBkPSJNMC40Miw0Mi4wN0MwLDQyLjIsNy4yMywzOS40MywxMS4zNCw0NC42NyAgICAgIGMxLjQ1LDEuODYtMC4yNCw5LjQzLTQuMjYsMTUuNEwwLjQyLDQyLjA3eiIvPiYjeGE7CQkJCSYjeGE7CQkJCQk8cGF0aCBpZD0icGF0aDEwMzA2NSIgaW5rc2NhcGU6Y29ubmVjdG9yLWN1cnZhdHVyZT0iMCIgc3R5bGU9ImZpbGw6bm9uZTtzdHJva2U6I0ZGRkZGRjtzdHJva2UtbGluZWNhcDpyb3VuZDtzdHJva2UtbGluZWpvaW46cm91bmQ7c3Ryb2tlLW1pdGVybGltaXQ6MzsiIGQ9IiAgICAgIE0wLjQyLDQyLjA3QzAsNDIuMiw3LjIzLDM5LjQzLDExLjM0LDQ0LjY3YzEuNDUsMS44Ni0wLjI0LDkuNDMtNC4yNiwxNS40Ii8+JiN4YTsJCQk8L2c+JiN4YTsJCQk8ZyBpZD0ic2hhcGUzNzM5LTQyIiB0cmFuc2Zvcm09InRyYW5zbGF0ZSg5Ljg0MzI3LC0xMC42MTg5KSI+JiN4YTsJCQkJPHRpdGxlIGlkPSJ0aXRsZTEwMzA2OCI+cGF0aDI0NzI8L3RpdGxlPiYjeGE7CQkJCTxwYXRoIGlkPSJwYXRoMTAzMDcwIiBpbmtzY2FwZTpjb25uZWN0b3ItY3VydmF0dXJlPSIwIiBzdHlsZT0iZmlsbDojM0Y1NzY1OyIgZD0iTTE2LjYzLDU3YzAsMCwwLjI2LDEuMjksNC4wNywwLjUxICAgICAgYzEuNjctMC4zNSwwLjY2LDAuOTctMS4wMywxLjc1Yy0xLjM5LDAuNjUtNC41LDAuODEtNC41Ni0wLjA4QzE0Ljk4LDU2Ljg4LDE2Ljc1LDU3LjU4LDE2LjYzLDU3ICAgICAgYy0wLjEyLTAuNTEtMC45MS0xLjAyLTEuNDMtMi4yOWMtMC40Ni0xLjExLTYuMjctOS42MSwxLjYxLTguMzVjMC4yOS0wLjA2LTIuMDYtNy40OS05LjQ0LTcuNjFDMCwzOC42MiwwLjI0LDQ3LjgxLDAuMjQsNDcuODEgICAgICBMMTYuNjMsNTd6Ii8+JiN4YTsJCQkJJiN4YTsJCQkJCTxwYXRoIGlkPSJwYXRoMTAzMDcyIiBpbmtzY2FwZTpjb25uZWN0b3ItY3VydmF0dXJlPSIwIiBzdHlsZT0iZmlsbDpub25lO3N0cm9rZTojRkZGRkZGO3N0cm9rZS1saW5lY2FwOnJvdW5kO3N0cm9rZS1saW5lam9pbjpyb3VuZDtzdHJva2UtbWl0ZXJsaW1pdDozOyIgZD0iICAgICAgTTE2LjYzLDU3YzAsMCwwLjI2LDEuMjksNC4wNywwLjUxYzEuNjctMC4zNSwwLjY2LDAuOTctMS4wMywxLjc1Yy0xLjM5LDAuNjUtNC41LDAuODEtNC41Ni0wLjA4ICAgICAgQzE0Ljk4LDU2Ljg4LDE2Ljc1LDU3LjU4LDE2LjYzLDU3Yy0wLjEyLTAuNTEtMC45MS0xLjAyLTEuNDMtMi4yOWMtMC40Ni0xLjExLTYuMjctOS42MSwxLjYxLTguMzUgICAgICBjMC4yOS0wLjA2LTIuMDYtNy40OS05LjQ0LTcuNjFDMCwzOC42MiwwLjI0LDQ3LjgxLDAuMjQsNDcuODEiLz4mI3hhOwkJCTwvZz4mI3hhOwkJCTxnIGlkPSJzaGFwZTM3NDAtNDUiIHRyYW5zZm9ybT0idHJhbnNsYXRlKDkuNTE2NDIsLTkuMTUxNSkiPiYjeGE7CQkJCTx0aXRsZSBpZD0idGl0bGUxMDMwNzUiPnBhdGgyNDc0PC90aXRsZT4mI3hhOwkJCQkmI3hhOwkJCQkJPHBhdGggaWQ9InBhdGgxMDMwNzciIGlua3NjYXBlOmNvbm5lY3Rvci1jdXJ2YXR1cmU9IjAiIHN0eWxlPSJmaWxsOiMzRjU3NjU7c3Ryb2tlOiNGRkZGRkY7c3Ryb2tlLWxpbmVjYXA6cm91bmQ7c3Ryb2tlLWxpbmVqb2luOnJvdW5kO3N0cm9rZS1taXRlcmxpbWl0OjM7IiBkPSIgICAgICBNNC44Niw1Ni4zMmMtMS4wMywxLjE1LTAuNzMsMS4zNS0yLjc4LDEuNzhDMCw1OC41MywxLjIyLDU5LjI5LDIuMDIsNTkuNDljMC45NywwLjI0LDMuMiwwLjU4LDQuNzEtMS41MyAgICAgIGMwLjQ2LTAuNjUsMC0xLjY4LTAuNjMtMS45NEM1Ljc5LDU1Ljg5LDUuMzksNTUuNzQsNC44Niw1Ni4zMnoiLz4mI3hhOwkJCTwvZz4mI3hhOwkJCTxnIGlkPSJzaGFwZTM3NDEtNDciIHRyYW5zZm9ybT0idHJhbnNsYXRlKDkuNjEzNCwtMTIuOTIwMSkiPiYjeGE7CQkJCTx0aXRsZSBpZD0idGl0bGUxMDMwODAiPnBhdGgyNDc2PC90aXRsZT4mI3hhOwkJCQk8cGF0aCBpZD0icGF0aDEwMzA4MiIgaW5rc2NhcGU6Y29ubmVjdG9yLWN1cnZhdHVyZT0iMCIgc3R5bGU9ImZpbGw6IzNGNTc2NTsiIGQ9Ik00LjcsNjAuMDdjLTAuMTEtMC42NywwLjIyLTEuNDgsMC41Ny0yLjQyICAgICAgYzAuNTItMS40MSwxLjczLTIuODIsMC43Ni03LjI5Yy0wLjcyLTMuMzQtNS41Ni0wLjctNS41Ni0wLjI0YzAsMC40NSwwLjIyLDIuMjktMC4wOCw0LjQzQzAsNTcuMzQsMi4xNyw1OS43MSw0LjY3LDU5LjQ3ICAgICAgTDQuNyw2MC4wN3oiLz4mI3hhOwkJCQkmI3hhOwkJCQkJPHBhdGggaWQ9InBhdGgxMDMwODQiIGlua3NjYXBlOmNvbm5lY3Rvci1jdXJ2YXR1cmU9IjAiIHN0eWxlPSJmaWxsOm5vbmU7c3Ryb2tlOiNGRkZGRkY7c3Ryb2tlLWxpbmVjYXA6cm91bmQ7c3Ryb2tlLWxpbmVqb2luOnJvdW5kO3N0cm9rZS1taXRlcmxpbWl0OjM7IiBkPSIgICAgICBNNC43LDYwLjA3Yy0wLjExLTAuNjcsMC4yMi0xLjQ4LDAuNTctMi40MmMwLjUyLTEuNDEsMS43My0yLjgyLDAuNzYtNy4yOWMtMC43Mi0zLjM0LTUuNTYtMC43LTUuNTYtMC4yNCAgICAgIGMwLDAuNDUsMC4yMiwyLjI5LTAuMDgsNC40M0MwLDU3LjM0LDIuMTcsNTkuNzEsNC42Nyw1OS40NyIvPiYjeGE7CQkJPC9nPiYjeGE7CQkJPGcgaWQ9InNoYXBlMzc0Mi01MCIgdHJhbnNmb3JtPSJ0cmFuc2xhdGUoMTMuMTM2OCwtMjIuMjY3NikiPiYjeGE7CQkJCTx0aXRsZSBpZD0idGl0bGUxMDMwODciPnBhdGgyNDc4PC90aXRsZT4mI3hhOwkJCQk8cGF0aCBpZD0icGF0aDEwMzA4OSIgaW5rc2NhcGU6Y29ubmVjdG9yLWN1cnZhdHVyZT0iMCIgc3R5bGU9ImZpbGw6I0ZGRkZGRjtzdHJva2U6I0ZGRkZGRjtzdHJva2UtbWl0ZXJsaW1pdDozOyIgZD0iICAgICAgTTAuMDIsNTkuNEMwLDU5LjU1LDAuMyw1OS45NiwwLjcsNjAuMDJjMC40LDAuMDUsMC43NC0wLjI3LDAuNzYtMC40MmMwLjAyLTAuMTYtMC4yOC0wLjMzLTAuNjgtMC4zOCAgICAgIEMwLjM4LDU5LjE2LDAuMDQsNTkuMjQsMC4wMiw1OS40eiIvPiYjeGE7CQkJPC9nPiYjeGE7CQkJPGcgaWQ9InNoYXBlMzc0My01MiIgdHJhbnNmb3JtPSJ0cmFuc2xhdGUoMjMuNzczMywtMjIuNTgyNCkiPiYjeGE7CQkJCTx0aXRsZSBpZD0idGl0bGUxMDMwOTIiPnBhdGgyNDgwPC90aXRsZT4mI3hhOwkJCQk8cGF0aCBpZD0icGF0aDEwMzA5NCIgaW5rc2NhcGU6Y29ubmVjdG9yLWN1cnZhdHVyZT0iMCIgc3R5bGU9ImZpbGw6I0ZGRkZGRjtzdHJva2U6I0ZGRkZGRjtzdHJva2UtbWl0ZXJsaW1pdDozOyIgZD0iICAgICAgTTEuNDYsNTkuNGMwLjAyLDAuMTUtMC4yOCwwLjU2LTAuNjgsMC42MmMtMC40LDAuMDUtMC43NC0wLjI3LTAuNzYtMC40MkMwLDU5LjQ0LDAuMyw1OS4yNywwLjcsNTkuMjIgICAgICBDMS4xLDU5LjE2LDEuNDQsNTkuMjQsMS40Niw1OS40eiIvPiYjeGE7CQkJPC9nPiYjeGE7CQkJPGcgaWQ9InNoYXBlMzc0NC01NCIgdHJhbnNmb3JtPSJ0cmFuc2xhdGUoMjUuODAzOSwtMTQuODM1MikiPiYjeGE7CQkJCTx0aXRsZSBpZD0idGl0bGUxMDMwOTciPnBhdGgyNDgyPC90aXRsZT4mI3hhOwkJCQk8cGF0aCBpZD0icGF0aDEwMzA5OSIgaW5rc2NhcGU6Y29ubmVjdG9yLWN1cnZhdHVyZT0iMCIgc3R5bGU9ImZpbGw6IzMxNjE5MjsiIGQ9Ik0wLjg1LDUwLjU4YzAuMDYsMS4yMS0wLjI2LDIuMDQtMC4zMSwzLjMzICAgICAgYy0wLjA2LDEuODcsMC45LDQuMDEtMC41NCw2LjE2TDAuODUsNTAuNTh6Ii8+JiN4YTsJCQkJJiN4YTsJCQkJCTxwYXRoIGlkPSJwYXRoMTAzMTAxIiBpbmtzY2FwZTpjb25uZWN0b3ItY3VydmF0dXJlPSIwIiBzdHlsZT0iZmlsbDpub25lO3N0cm9rZTojRkZGRkZGO3N0cm9rZS1saW5lY2FwOnJvdW5kO3N0cm9rZS1saW5lam9pbjpyb3VuZDtzdHJva2UtbWl0ZXJsaW1pdDozOyIgZD0iICAgICAgTTAuODUsNTAuNThjMC4wNiwxLjIxLTAuMjYsMi4wNC0wLjMxLDMuMzNjLTAuMDYsMS44NywwLjksNC4wMS0wLjU0LDYuMTYiLz4mI3hhOwkJCTwvZz4mI3hhOwkJPC9nPiYjeGE7CTwvZz4mI3hhOzwvZz4mI3hhOzwvc3ZnPg==;" parent="1" vertex="1">
          <mxGeometry x="125.25" y="300" width="53" height="60" as="geometry" />
        </mxCell>
      </root>
    </mxGraphModel>
  </diagram>
</mxfile>
